<svg width="161" height="87" viewBox="0 0 161 87" fill="none" xmlns="http://www.w3.org/2000/svg">
<mask id="path-1-outside-1_4_28" maskUnits="userSpaceOnUse" x="0" y="0" width="161" height="87" fill="black">
<rect fill="white" width="161" height="87"/>
<path fill-rule="evenodd" clip-rule="evenodd" d="M76.8194 40H65.7294C64.0482 29.2358 54.7359 21 43.5 21C31.0736 21 21 31.0736 21 43.5C21 55.9264 31.0736 66 43.5 66C44.6905 66 45.8595 65.9075 47 65.7294V76.8194C45.8496 76.9388 44.682 77 43.5 77C24.9985 77 10 62.0015 10 43.5C10 24.9985 24.9985 10 43.5 10C60.8196 10 75.0694 23.1433 76.8194 40ZM47 56.2085V65.7294C53.333 64.7403 58.7908 61.1097 62.2111 56H64.7661V50.8674C65.5657 48.5592 66 46.0803 66 43.5C66 42.3095 65.9075 41.1405 65.7294 40H47V44.8858C46.6411 44.9454 46.3059 45.0301 45.9945 45.14C45.3145 45.3667 44.7879 45.7133 44.4145 46.18C44.0412 46.6467 43.8545 47.2467 43.8545 47.98C43.8545 48.62 43.9879 49.1533 44.2545 49.58C44.5345 50.0067 44.9279 50.3667 45.4345 50.66C45.8793 50.9175 46.4011 51.1596 47 51.3863V53.8229C46.8642 53.8002 46.7291 53.7726 46.5945 53.74C46.1545 53.6333 45.7479 53.5 45.3745 53.34C45.0012 53.18 44.6812 53.0267 44.4145 52.88L43.5745 55.26C44.1879 55.58 44.8879 55.8267 45.6745 56C46.1184 56.0962 46.5602 56.1657 47 56.2085ZM47 48.3293V51.3863C47.0834 51.4178 47.1682 51.449 47.2545 51.48C47.7345 51.64 48.1479 51.7933 48.4945 51.94C48.8412 52.0733 49.1012 52.22 49.2745 52.38C49.4612 52.5267 49.5545 52.72 49.5545 52.96C49.5545 53.28 49.4145 53.52 49.1345 53.68C48.8679 53.8267 48.4679 53.9 47.9345 53.9C47.6198 53.9 47.3083 53.8743 47 53.8229V56.2085C47.3528 56.2428 47.7043 56.26 48.0545 56.26C49.2012 56.26 50.1012 56.1 50.7545 55.78C51.4079 55.4467 51.8679 55.02 52.1345 54.5C52.4145 53.9667 52.5545 53.4 52.5545 52.8C52.5545 52.1733 52.4279 51.6467 52.1745 51.22C51.9345 50.7933 51.5745 50.4333 51.0945 50.14C50.6145 49.8467 50.0279 49.58 49.3345 49.34C48.8145 49.1533 48.3679 49 47.9945 48.88C47.6212 48.7467 47.3345 48.6067 47.1345 48.46C47.0824 48.419 47.0376 48.3755 47 48.3293ZM47 48.3293V47.5115C47.0678 47.4309 47.1593 47.3604 47.2745 47.3C47.5545 47.1533 47.9679 47.08 48.5145 47.08C48.9012 47.08 49.3012 47.12 49.7145 47.2C50.1412 47.2667 50.5345 47.3533 50.8945 47.46C51.2679 47.5667 51.5679 47.6733 51.7945 47.78V45.42C51.4612 45.2333 50.9945 45.08 50.3945 44.96C49.7945 44.84 49.1212 44.78 48.3745 44.78C47.8831 44.78 47.4249 44.8153 47 44.8858V47.5115C46.903 47.6269 46.8545 47.7631 46.8545 47.92C46.8545 48.0738 46.903 48.2102 47 48.3293ZM64.7661 50.8674C64.1324 52.6969 63.2693 54.4192 62.2111 56H61.7861V49.46C61.7861 48.7533 61.6194 48.2 61.2861 47.8C60.9661 47.3867 60.4328 47.18 59.6861 47.18C58.9528 47.18 58.4194 47.3867 58.0861 47.8C57.7661 48.2 57.6061 48.7533 57.6061 49.46V51.2L57.6661 51.22C57.9194 50.7 58.2194 50.36 58.5661 50.2C58.9261 50.0267 59.4128 49.94 60.0261 49.94H60.4861V52.18H60.0261C59.3594 52.18 58.8528 52.2933 58.5061 52.52C58.1594 52.7467 57.9194 53.0467 57.7861 53.42C57.6661 53.78 57.6061 54.1867 57.6061 54.64V56H54.6461V49.5C54.6461 47.9667 55.0528 46.8 55.8661 46C56.6794 45.1867 57.9661 44.78 59.7261 44.78C61.4994 44.78 62.7794 45.1867 63.5661 46C64.3661 46.8 64.7661 47.9667 64.7661 49.5V50.8674ZM38.08 43.78V45.04V47.04V53.64C38.08 54.2133 38.1867 54.6933 38.4 55.08C38.6133 55.4533 38.9267 55.7333 39.34 55.92C39.7533 56.1067 40.26 56.2 40.86 56.2C41.22 56.2 41.56 56.1667 41.88 56.1C42.2 56.0333 42.4867 55.9333 42.74 55.8L42.46 53.88C42.3533 53.92 42.24 53.9533 42.12 53.98C42 54.0067 41.8867 54.02 41.78 54.02C41.54 54.02 41.36 53.96 41.24 53.84C41.1333 53.72 41.08 53.5333 41.08 53.28V47.04V45.04V44.12C41.08 43.4667 40.9933 42.94 40.82 42.54C40.66 42.14 40.4067 41.8333 40.06 41.62L40.08 41.54H43.44V39.38H38.34L36.32 40.34V41.54C36.9067 41.54 37.3467 41.7133 37.64 42.06C37.9333 42.4067 38.08 42.98 38.08 43.78ZM66.7958 45.04L68.6958 56H71.5558L72.8358 51.54C72.9424 51.1667 73.0291 50.8333 73.0958 50.54C73.1624 50.2333 73.2158 49.94 73.2558 49.66C73.3091 49.38 73.3624 49.0867 73.4158 48.78H73.4958C73.5624 49.2333 73.6291 49.68 73.6958 50.12C73.7758 50.5467 73.8825 51.02 74.0158 51.54L75.2758 56H78.2158L80.0958 45.04H77.1958L76.6358 48.9C76.5825 49.22 76.5291 49.66 76.4758 50.22C76.4358 50.7667 76.3824 51.4067 76.3158 52.14H76.2558C76.1491 51.6467 76.0424 51.2 75.9358 50.8C75.8424 50.3867 75.7491 50.02 75.6558 49.7C75.5758 49.3667 75.5024 49.08 75.4358 48.84L74.3558 45.04H72.5358L71.4558 48.84C71.3891 49.08 71.3091 49.3667 71.2158 49.7C71.1358 50.02 71.0491 50.3867 70.9558 50.8C70.8624 51.2 70.7558 51.6467 70.6358 52.14H70.5758C70.5224 51.4067 70.4624 50.7667 70.3958 50.22C70.3424 49.66 70.2958 49.22 70.2558 48.9L69.7158 45.04H66.7958ZM70.1428 42.26V43.52H79.3028V41.42H72.1628L70.1428 42.26ZM84.267 55.72C85.027 56.08 86.0137 56.26 87.227 56.26C88.4404 56.26 89.4204 56.08 90.167 55.72C90.9137 55.3467 91.4604 54.8067 91.807 54.1C92.1378 53.4257 92.3108 52.6057 92.3259 51.64H93.487V49.7H92.327V45.04H89.347V49.7H88.687C88.5004 49.7 88.3537 49.64 88.247 49.52C88.1404 49.3867 88.087 49.2333 88.087 49.06C88.087 48.9667 88.0937 48.8733 88.107 48.78C88.1337 48.6733 88.167 48.58 88.207 48.5L86.427 48.14C86.2937 48.3 86.1937 48.5133 86.127 48.78C86.0604 49.0467 86.027 49.3 86.027 49.54C86.027 49.8733 86.1004 50.2067 86.247 50.54C86.3937 50.86 86.647 51.1267 87.007 51.34C87.3804 51.54 87.8804 51.64 88.507 51.64H89.347V51.66C89.347 52.4333 89.187 53 88.867 53.36C88.547 53.7067 88.0137 53.88 87.267 53.88C86.4937 53.88 85.9337 53.6933 85.587 53.32C85.2537 52.9467 85.087 52.3933 85.087 51.66V45.04H82.107V51.5C82.107 52.5267 82.2804 53.3933 82.627 54.1C82.9737 54.8067 83.5204 55.3467 84.267 55.72ZM101.843 51.3676V56H104.783V49C104.783 48.2133 104.656 47.5733 104.403 47.08C104.35 46.9688 104.29 46.8657 104.222 46.7706C104.353 46.6926 104.474 46.6091 104.583 46.52C104.956 46.2267 105.223 45.8933 105.383 45.52C105.556 45.1333 105.643 44.7333 105.643 44.32H103.023C103.01 44.68 102.87 44.9867 102.603 45.24C102.58 45.2604 102.557 45.2805 102.533 45.3003C102.365 45.1908 102.175 45.104 101.963 45.04C101.403 44.8667 100.77 44.78 100.063 44.78C99.1431 44.78 98.3298 44.88 97.6231 45.08C96.9165 45.2667 96.3698 45.4533 95.9831 45.64V48.12C96.4631 47.84 97.0298 47.6 97.6831 47.4C98.3498 47.1867 99.0298 47.08 99.7231 47.08C100.443 47.08 100.976 47.22 101.323 47.5C101.67 47.78 101.843 48.24 101.843 48.88V49.1975L99.7631 49.36C98.1098 49.4933 96.8965 49.88 96.1231 50.52C95.3631 51.16 94.9831 52.0133 94.9831 53.08C94.9831 54.0667 95.2898 54.8333 95.9031 55.38C96.5298 55.9267 97.4165 56.2 98.5631 56.2C98.9365 56.2 99.2965 56.1733 99.6431 56.12C99.9898 56.0667 100.29 55.9933 100.543 55.9L100.283 54.02C100.15 54.06 100.003 54.1 99.8431 54.14C99.6831 54.1667 99.5231 54.18 99.3631 54.18C98.9498 54.18 98.6098 54.08 98.3431 53.88C98.0898 53.68 97.9631 53.38 97.9631 52.98C97.9631 52.58 98.1165 52.26 98.4231 52.02C98.7431 51.78 99.3031 51.62 100.103 51.54L101.843 51.3676ZM102.231 59.44V61.22H104.791V58.74C104.791 58.2867 104.658 57.9267 104.391 57.66C104.124 57.4067 103.664 57.28 103.011 57.28C102.678 57.28 102.351 57.3133 102.031 57.38C101.698 57.4467 101.438 57.5133 101.251 57.58L101.391 59.02C101.458 58.9933 101.524 58.9733 101.591 58.96C101.658 58.9467 101.724 58.94 101.791 58.94C102.084 58.94 102.231 59.1067 102.231 59.44ZM109.314 55.74C109.874 56.0467 110.561 56.2 111.374 56.2C112.321 56.2 113.068 56.02 113.614 55.66C114.174 55.3 114.568 54.8533 114.794 54.32H114.974L115.294 56H117.574V45.04H114.574V50.28C114.574 51.4133 114.381 52.2533 113.994 52.8C113.608 53.3333 113.061 53.6 112.354 53.6C111.794 53.6 111.368 53.4333 111.074 53.1C110.781 52.7667 110.634 52.2333 110.634 51.5V45.04H107.634V52.02C107.634 52.9267 107.774 53.6933 108.054 54.32C108.348 54.9467 108.768 55.42 109.314 55.74ZM113.184 43.24C113.544 43.4267 114.037 43.52 114.664 43.52H119.704V41.58H115.404C115.137 41.58 114.951 41.5333 114.844 41.44C114.724 41.3333 114.664 41.1867 114.664 41C114.664 40.92 114.677 40.8333 114.704 40.74C114.717 40.6333 114.737 40.5333 114.764 40.44L112.584 40.16C112.451 40.3867 112.351 40.6333 112.284 40.9C112.217 41.1533 112.184 41.3933 112.184 41.62C112.184 41.94 112.264 42.2467 112.424 42.54C112.571 42.82 112.824 43.0533 113.184 43.24ZM121.684 55.26C122.444 55.9267 123.571 56.26 125.064 56.26C126.544 56.26 127.671 55.9267 128.444 55.26C129.217 54.58 129.604 53.58 129.604 52.26V45.04H126.624V52.18C126.624 52.74 126.497 53.1733 126.244 53.48C125.991 53.7733 125.604 53.92 125.084 53.92C124.764 53.92 124.484 53.86 124.244 53.74C124.017 53.6067 123.837 53.4067 123.704 53.14C123.584 52.86 123.524 52.5067 123.524 52.08V51.28C123.524 50.7733 123.591 50.3867 123.724 50.12C123.871 49.8533 124.031 49.5667 124.204 49.26C124.391 48.9267 124.544 48.6067 124.664 48.3C124.784 47.98 124.844 47.6133 124.844 47.2C124.844 46.72 124.764 46.3067 124.604 45.96C124.444 45.6133 124.184 45.3467 123.824 45.16C123.477 44.9733 123.011 44.88 122.424 44.88C122.091 44.88 121.704 44.92 121.264 45C120.837 45.0667 120.437 45.2 120.064 45.4L120.544 47.28C120.717 47.2 120.871 47.14 121.004 47.1C121.151 47.06 121.291 47.04 121.424 47.04C121.611 47.04 121.757 47.0933 121.864 47.2C121.984 47.2933 122.044 47.46 122.044 47.7C122.044 47.9533 121.971 48.2 121.824 48.44C121.691 48.6667 121.517 48.9267 121.304 49.22C121.091 49.5133 120.911 49.84 120.764 50.2C120.617 50.5467 120.544 50.9933 120.544 51.54V52.34C120.544 53.62 120.924 54.5933 121.684 55.26ZM133.56 55.06C134.347 55.86 135.607 56.26 137.34 56.26C139.073 56.26 140.327 55.86 141.1 55.06C141.887 54.2467 142.28 53.0733 142.28 51.54V45.04H139.28V51.7C139.28 52.4067 139.12 52.9467 138.8 53.32C138.493 53.68 138.007 53.86 137.34 53.86C136.673 53.86 136.18 53.68 135.86 53.32C135.553 52.9467 135.4 52.4067 135.4 51.7V45.04H132.4V51.54C132.4 53.0733 132.787 54.2467 133.56 55.06ZM136.251 42.54V43.54H142.791V41.6H139.742C139.766 41.5675 139.79 41.5342 139.811 41.5C139.958 41.2467 140.031 40.9733 140.031 40.68C140.031 40.1333 139.864 39.72 139.531 39.44C139.184 39.16 138.711 39.02 138.111 39.02C137.844 39.02 137.518 39.06 137.131 39.14C136.731 39.2067 136.398 39.3533 136.131 39.58L136.511 40.92C136.604 40.88 136.711 40.84 136.831 40.8C136.951 40.76 137.064 40.74 137.171 40.74C137.331 40.74 137.464 40.7933 137.571 40.9C137.678 41.0067 137.731 41.1533 137.731 41.34C137.731 41.58 137.644 41.78 137.471 41.94C137.298 42.1 137.098 42.2267 136.871 42.32C136.644 42.4133 136.438 42.4867 136.251 42.54ZM147.976 48.76V56H150.976V48.22C150.976 47.3533 150.809 46.6733 150.476 46.18C150.156 45.6733 149.709 45.3133 149.136 45.1C148.576 44.8867 147.929 44.78 147.196 44.78C146.476 44.78 145.849 44.8467 145.316 44.98C144.782 45.1133 144.369 45.2467 144.076 45.38V47.78C144.396 47.6067 144.736 47.46 145.096 47.34C145.469 47.22 145.876 47.16 146.316 47.16C146.902 47.16 147.322 47.2867 147.576 47.54C147.842 47.7933 147.976 48.2 147.976 48.76Z"/>
</mask>
<path fill-rule="evenodd" clip-rule="evenodd" d="M76.8194 40H65.7294C64.0482 29.2358 54.7359 21 43.5 21C31.0736 21 21 31.0736 21 43.5C21 55.9264 31.0736 66 43.5 66C44.6905 66 45.8595 65.9075 47 65.7294V76.8194C45.8496 76.9388 44.682 77 43.5 77C24.9985 77 10 62.0015 10 43.5C10 24.9985 24.9985 10 43.5 10C60.8196 10 75.0694 23.1433 76.8194 40ZM47 56.2085V65.7294C53.333 64.7403 58.7908 61.1097 62.2111 56H64.7661V50.8674C65.5657 48.5592 66 46.0803 66 43.5C66 42.3095 65.9075 41.1405 65.7294 40H47V44.8858C46.6411 44.9454 46.3059 45.0301 45.9945 45.14C45.3145 45.3667 44.7879 45.7133 44.4145 46.18C44.0412 46.6467 43.8545 47.2467 43.8545 47.98C43.8545 48.62 43.9879 49.1533 44.2545 49.58C44.5345 50.0067 44.9279 50.3667 45.4345 50.66C45.8793 50.9175 46.4011 51.1596 47 51.3863V53.8229C46.8642 53.8002 46.7291 53.7726 46.5945 53.74C46.1545 53.6333 45.7479 53.5 45.3745 53.34C45.0012 53.18 44.6812 53.0267 44.4145 52.88L43.5745 55.26C44.1879 55.58 44.8879 55.8267 45.6745 56C46.1184 56.0962 46.5602 56.1657 47 56.2085ZM47 48.3293V51.3863C47.0834 51.4178 47.1682 51.449 47.2545 51.48C47.7345 51.64 48.1479 51.7933 48.4945 51.94C48.8412 52.0733 49.1012 52.22 49.2745 52.38C49.4612 52.5267 49.5545 52.72 49.5545 52.96C49.5545 53.28 49.4145 53.52 49.1345 53.68C48.8679 53.8267 48.4679 53.9 47.9345 53.9C47.6198 53.9 47.3083 53.8743 47 53.8229V56.2085C47.3528 56.2428 47.7043 56.26 48.0545 56.26C49.2012 56.26 50.1012 56.1 50.7545 55.78C51.4079 55.4467 51.8679 55.02 52.1345 54.5C52.4145 53.9667 52.5545 53.4 52.5545 52.8C52.5545 52.1733 52.4279 51.6467 52.1745 51.22C51.9345 50.7933 51.5745 50.4333 51.0945 50.14C50.6145 49.8467 50.0279 49.58 49.3345 49.34C48.8145 49.1533 48.3679 49 47.9945 48.88C47.6212 48.7467 47.3345 48.6067 47.1345 48.46C47.0824 48.419 47.0376 48.3755 47 48.3293ZM47 48.3293V47.5115C47.0678 47.4309 47.1593 47.3604 47.2745 47.3C47.5545 47.1533 47.9679 47.08 48.5145 47.08C48.9012 47.08 49.3012 47.12 49.7145 47.2C50.1412 47.2667 50.5345 47.3533 50.8945 47.46C51.2679 47.5667 51.5679 47.6733 51.7945 47.78V45.42C51.4612 45.2333 50.9945 45.08 50.3945 44.96C49.7945 44.84 49.1212 44.78 48.3745 44.78C47.8831 44.78 47.4249 44.8153 47 44.8858V47.5115C46.903 47.6269 46.8545 47.7631 46.8545 47.92C46.8545 48.0738 46.903 48.2102 47 48.3293ZM64.7661 50.8674C64.1324 52.6969 63.2693 54.4192 62.2111 56H61.7861V49.46C61.7861 48.7533 61.6194 48.2 61.2861 47.8C60.9661 47.3867 60.4328 47.18 59.6861 47.18C58.9528 47.18 58.4194 47.3867 58.0861 47.8C57.7661 48.2 57.6061 48.7533 57.6061 49.46V51.2L57.6661 51.22C57.9194 50.7 58.2194 50.36 58.5661 50.2C58.9261 50.0267 59.4128 49.94 60.0261 49.94H60.4861V52.18H60.0261C59.3594 52.18 58.8528 52.2933 58.5061 52.52C58.1594 52.7467 57.9194 53.0467 57.7861 53.42C57.6661 53.78 57.6061 54.1867 57.6061 54.64V56H54.6461V49.5C54.6461 47.9667 55.0528 46.8 55.8661 46C56.6794 45.1867 57.9661 44.78 59.7261 44.78C61.4994 44.78 62.7794 45.1867 63.5661 46C64.3661 46.8 64.7661 47.9667 64.7661 49.5V50.8674ZM38.08 43.78V45.04V47.04V53.64C38.08 54.2133 38.1867 54.6933 38.4 55.08C38.6133 55.4533 38.9267 55.7333 39.34 55.92C39.7533 56.1067 40.26 56.2 40.86 56.2C41.22 56.2 41.56 56.1667 41.88 56.1C42.2 56.0333 42.4867 55.9333 42.74 55.8L42.46 53.88C42.3533 53.92 42.24 53.9533 42.12 53.98C42 54.0067 41.8867 54.02 41.78 54.02C41.54 54.02 41.36 53.96 41.24 53.84C41.1333 53.72 41.08 53.5333 41.08 53.28V47.04V45.04V44.12C41.08 43.4667 40.9933 42.94 40.82 42.54C40.66 42.14 40.4067 41.8333 40.06 41.62L40.08 41.54H43.44V39.38H38.34L36.32 40.34V41.54C36.9067 41.54 37.3467 41.7133 37.64 42.06C37.9333 42.4067 38.08 42.98 38.08 43.78ZM66.7958 45.04L68.6958 56H71.5558L72.8358 51.54C72.9424 51.1667 73.0291 50.8333 73.0958 50.54C73.1624 50.2333 73.2158 49.94 73.2558 49.66C73.3091 49.38 73.3624 49.0867 73.4158 48.78H73.4958C73.5624 49.2333 73.6291 49.68 73.6958 50.12C73.7758 50.5467 73.8825 51.02 74.0158 51.54L75.2758 56H78.2158L80.0958 45.04H77.1958L76.6358 48.9C76.5825 49.22 76.5291 49.66 76.4758 50.22C76.4358 50.7667 76.3824 51.4067 76.3158 52.14H76.2558C76.1491 51.6467 76.0424 51.2 75.9358 50.8C75.8424 50.3867 75.7491 50.02 75.6558 49.7C75.5758 49.3667 75.5024 49.08 75.4358 48.84L74.3558 45.04H72.5358L71.4558 48.84C71.3891 49.08 71.3091 49.3667 71.2158 49.7C71.1358 50.02 71.0491 50.3867 70.9558 50.8C70.8624 51.2 70.7558 51.6467 70.6358 52.14H70.5758C70.5224 51.4067 70.4624 50.7667 70.3958 50.22C70.3424 49.66 70.2958 49.22 70.2558 48.9L69.7158 45.04H66.7958ZM70.1428 42.26V43.52H79.3028V41.42H72.1628L70.1428 42.26ZM84.267 55.72C85.027 56.08 86.0137 56.26 87.227 56.26C88.4404 56.26 89.4204 56.08 90.167 55.72C90.9137 55.3467 91.4604 54.8067 91.807 54.1C92.1378 53.4257 92.3108 52.6057 92.3259 51.64H93.487V49.7H92.327V45.04H89.347V49.7H88.687C88.5004 49.7 88.3537 49.64 88.247 49.52C88.1404 49.3867 88.087 49.2333 88.087 49.06C88.087 48.9667 88.0937 48.8733 88.107 48.78C88.1337 48.6733 88.167 48.58 88.207 48.5L86.427 48.14C86.2937 48.3 86.1937 48.5133 86.127 48.78C86.0604 49.0467 86.027 49.3 86.027 49.54C86.027 49.8733 86.1004 50.2067 86.247 50.54C86.3937 50.86 86.647 51.1267 87.007 51.34C87.3804 51.54 87.8804 51.64 88.507 51.64H89.347V51.66C89.347 52.4333 89.187 53 88.867 53.36C88.547 53.7067 88.0137 53.88 87.267 53.88C86.4937 53.88 85.9337 53.6933 85.587 53.32C85.2537 52.9467 85.087 52.3933 85.087 51.66V45.04H82.107V51.5C82.107 52.5267 82.2804 53.3933 82.627 54.1C82.9737 54.8067 83.5204 55.3467 84.267 55.72ZM101.843 51.3676V56H104.783V49C104.783 48.2133 104.656 47.5733 104.403 47.08C104.35 46.9688 104.29 46.8657 104.222 46.7706C104.353 46.6926 104.474 46.6091 104.583 46.52C104.956 46.2267 105.223 45.8933 105.383 45.52C105.556 45.1333 105.643 44.7333 105.643 44.32H103.023C103.01 44.68 102.87 44.9867 102.603 45.24C102.58 45.2604 102.557 45.2805 102.533 45.3003C102.365 45.1908 102.175 45.104 101.963 45.04C101.403 44.8667 100.77 44.78 100.063 44.78C99.1431 44.78 98.3298 44.88 97.6231 45.08C96.9165 45.2667 96.3698 45.4533 95.9831 45.64V48.12C96.4631 47.84 97.0298 47.6 97.6831 47.4C98.3498 47.1867 99.0298 47.08 99.7231 47.08C100.443 47.08 100.976 47.22 101.323 47.5C101.67 47.78 101.843 48.24 101.843 48.88V49.1975L99.7631 49.36C98.1098 49.4933 96.8965 49.88 96.1231 50.52C95.3631 51.16 94.9831 52.0133 94.9831 53.08C94.9831 54.0667 95.2898 54.8333 95.9031 55.38C96.5298 55.9267 97.4165 56.2 98.5631 56.2C98.9365 56.2 99.2965 56.1733 99.6431 56.12C99.9898 56.0667 100.29 55.9933 100.543 55.9L100.283 54.02C100.15 54.06 100.003 54.1 99.8431 54.14C99.6831 54.1667 99.5231 54.18 99.3631 54.18C98.9498 54.18 98.6098 54.08 98.3431 53.88C98.0898 53.68 97.9631 53.38 97.9631 52.98C97.9631 52.58 98.1165 52.26 98.4231 52.02C98.7431 51.78 99.3031 51.62 100.103 51.54L101.843 51.3676ZM102.231 59.44V61.22H104.791V58.74C104.791 58.2867 104.658 57.9267 104.391 57.66C104.124 57.4067 103.664 57.28 103.011 57.28C102.678 57.28 102.351 57.3133 102.031 57.38C101.698 57.4467 101.438 57.5133 101.251 57.58L101.391 59.02C101.458 58.9933 101.524 58.9733 101.591 58.96C101.658 58.9467 101.724 58.94 101.791 58.94C102.084 58.94 102.231 59.1067 102.231 59.44ZM109.314 55.74C109.874 56.0467 110.561 56.2 111.374 56.2C112.321 56.2 113.068 56.02 113.614 55.66C114.174 55.3 114.568 54.8533 114.794 54.32H114.974L115.294 56H117.574V45.04H114.574V50.28C114.574 51.4133 114.381 52.2533 113.994 52.8C113.608 53.3333 113.061 53.6 112.354 53.6C111.794 53.6 111.368 53.4333 111.074 53.1C110.781 52.7667 110.634 52.2333 110.634 51.5V45.04H107.634V52.02C107.634 52.9267 107.774 53.6933 108.054 54.32C108.348 54.9467 108.768 55.42 109.314 55.74ZM113.184 43.24C113.544 43.4267 114.037 43.52 114.664 43.52H119.704V41.58H115.404C115.137 41.58 114.951 41.5333 114.844 41.44C114.724 41.3333 114.664 41.1867 114.664 41C114.664 40.92 114.677 40.8333 114.704 40.74C114.717 40.6333 114.737 40.5333 114.764 40.44L112.584 40.16C112.451 40.3867 112.351 40.6333 112.284 40.9C112.217 41.1533 112.184 41.3933 112.184 41.62C112.184 41.94 112.264 42.2467 112.424 42.54C112.571 42.82 112.824 43.0533 113.184 43.24ZM121.684 55.26C122.444 55.9267 123.571 56.26 125.064 56.26C126.544 56.26 127.671 55.9267 128.444 55.26C129.217 54.58 129.604 53.58 129.604 52.26V45.04H126.624V52.18C126.624 52.74 126.497 53.1733 126.244 53.48C125.991 53.7733 125.604 53.92 125.084 53.92C124.764 53.92 124.484 53.86 124.244 53.74C124.017 53.6067 123.837 53.4067 123.704 53.14C123.584 52.86 123.524 52.5067 123.524 52.08V51.28C123.524 50.7733 123.591 50.3867 123.724 50.12C123.871 49.8533 124.031 49.5667 124.204 49.26C124.391 48.9267 124.544 48.6067 124.664 48.3C124.784 47.98 124.844 47.6133 124.844 47.2C124.844 46.72 124.764 46.3067 124.604 45.96C124.444 45.6133 124.184 45.3467 123.824 45.16C123.477 44.9733 123.011 44.88 122.424 44.88C122.091 44.88 121.704 44.92 121.264 45C120.837 45.0667 120.437 45.2 120.064 45.4L120.544 47.28C120.717 47.2 120.871 47.14 121.004 47.1C121.151 47.06 121.291 47.04 121.424 47.04C121.611 47.04 121.757 47.0933 121.864 47.2C121.984 47.2933 122.044 47.46 122.044 47.7C122.044 47.9533 121.971 48.2 121.824 48.44C121.691 48.6667 121.517 48.9267 121.304 49.22C121.091 49.5133 120.911 49.84 120.764 50.2C120.617 50.5467 120.544 50.9933 120.544 51.54V52.34C120.544 53.62 120.924 54.5933 121.684 55.26ZM133.56 55.06C134.347 55.86 135.607 56.26 137.34 56.26C139.073 56.26 140.327 55.86 141.1 55.06C141.887 54.2467 142.28 53.0733 142.28 51.54V45.04H139.28V51.7C139.28 52.4067 139.12 52.9467 138.8 53.32C138.493 53.68 138.007 53.86 137.34 53.86C136.673 53.86 136.18 53.68 135.86 53.32C135.553 52.9467 135.4 52.4067 135.4 51.7V45.04H132.4V51.54C132.4 53.0733 132.787 54.2467 133.56 55.06ZM136.251 42.54V43.54H142.791V41.6H139.742C139.766 41.5675 139.79 41.5342 139.811 41.5C139.958 41.2467 140.031 40.9733 140.031 40.68C140.031 40.1333 139.864 39.72 139.531 39.44C139.184 39.16 138.711 39.02 138.111 39.02C137.844 39.02 137.518 39.06 137.131 39.14C136.731 39.2067 136.398 39.3533 136.131 39.58L136.511 40.92C136.604 40.88 136.711 40.84 136.831 40.8C136.951 40.76 137.064 40.74 137.171 40.74C137.331 40.74 137.464 40.7933 137.571 40.9C137.678 41.0067 137.731 41.1533 137.731 41.34C137.731 41.58 137.644 41.78 137.471 41.94C137.298 42.1 137.098 42.2267 136.871 42.32C136.644 42.4133 136.438 42.4867 136.251 42.54ZM147.976 48.76V56H150.976V48.22C150.976 47.3533 150.809 46.6733 150.476 46.18C150.156 45.6733 149.709 45.3133 149.136 45.1C148.576 44.8867 147.929 44.78 147.196 44.78C146.476 44.78 145.849 44.8467 145.316 44.98C144.782 45.1133 144.369 45.2467 144.076 45.38V47.78C144.396 47.6067 144.736 47.46 145.096 47.34C145.469 47.22 145.876 47.16 146.316 47.16C146.902 47.16 147.322 47.2867 147.576 47.54C147.842 47.7933 147.976 48.2 147.976 48.76Z" fill="white"/>
<path d="M76.8194 40V50H87.9113L86.7659 38.9674L76.8194 40ZM47 76.8194L48.0326 86.7659L57 85.8349V76.8194H47ZM64.7661 56V66H74.7661V56H64.7661ZM47 40V30H37V40H47ZM45.9945 45.14L49.1568 54.6268L49.2401 54.5991L49.3228 54.5699L45.9945 45.14ZM44.2545 49.58L35.7745 54.88L35.8333 54.9739L35.894 55.0665L44.2545 49.58ZM45.4345 50.66L50.4449 42.0057L50.4449 42.0057L45.4345 50.66ZM46.5945 53.74L48.9506 44.0215L48.9506 44.0215L46.5945 53.74ZM44.4145 52.88L49.2336 44.1178L38.9071 38.4383L34.9846 49.5518L44.4145 52.88ZM43.5745 55.26L34.1446 51.9318L31.2572 60.1128L38.9488 64.1258L43.5745 55.26ZM45.6745 56L43.5228 65.7658L43.5399 65.7695L43.557 65.7732L45.6745 56ZM47.2545 51.48L43.8798 60.8934L43.9856 60.9313L44.0923 60.9668L47.2545 51.48ZM48.4945 51.94L44.5982 61.1497L44.7504 61.2141L44.9047 61.2734L48.4945 51.94ZM49.2745 52.38L42.4917 59.728L42.7838 59.9976L43.0964 60.2432L49.2745 52.38ZM49.1345 53.68L53.9537 62.4421L54.0252 62.4029L54.0959 62.3624L49.1345 53.68ZM50.7545 55.78L55.1532 64.7606L55.2265 64.7247L55.2992 64.6876L50.7545 55.78ZM52.1345 54.5L43.2805 49.8517L43.2582 49.8941L43.2364 49.9368L52.1345 54.5ZM52.1745 51.22L43.4587 56.1226L43.5162 56.2247L43.576 56.3254L52.1745 51.22ZM49.3345 49.34L45.9559 58.7519L46.0095 58.7712L46.0634 58.7899L49.3345 49.34ZM47.9945 48.88L44.6312 58.2974L44.782 58.3513L44.9345 58.4003L47.9945 48.88ZM47.1345 48.46L40.9564 56.3232L41.0869 56.4258L41.2208 56.524L47.1345 48.46ZM47.2745 47.3L42.6344 38.4417L42.6344 38.4417L47.2745 47.3ZM49.7145 47.2L47.8143 57.0178L47.992 57.0522L48.1708 57.0801L49.7145 47.2ZM50.8945 47.46L48.0537 57.048L48.1004 57.0618L48.1473 57.0752L50.8945 47.46ZM51.7945 47.78L47.5366 56.8282L61.7945 63.5377V47.78H51.7945ZM51.7945 45.42H61.7945V39.5587L56.6805 36.6949L51.7945 45.42ZM50.3945 44.96L48.4334 54.7658L48.4334 54.7658L50.3945 44.96ZM61.7861 56H51.7861V66H61.7861V56ZM61.2861 47.8L53.3788 53.9217L53.4888 54.0638L53.6039 54.2018L61.2861 47.8ZM58.0861 47.8L50.3019 41.5225L50.2896 41.5378L50.2774 41.5531L58.0861 47.8ZM57.6061 51.2H47.6061V58.4076L54.4438 60.6868L57.6061 51.2ZM57.6661 51.22L54.5038 60.7068L62.8178 63.4782L66.656 55.5996L57.6661 51.22ZM58.5661 50.2L62.7567 59.2796L62.8308 59.2454L62.9043 59.21L58.5661 50.2ZM60.4861 49.94H70.4861V39.94H60.4861V49.94ZM60.4861 52.18V62.18H70.4861V52.18H60.4861ZM58.5061 52.52L63.9786 60.8897L63.9786 60.8897L58.5061 52.52ZM57.7861 53.42L48.3687 50.0567L48.3329 50.1568L48.2993 50.2578L57.7861 53.42ZM57.6061 56V66H67.6061V56H57.6061ZM54.6461 56H44.6461V66H54.6461V56ZM55.8661 46L62.8785 53.1293L62.9079 53.1003L62.9372 53.0711L55.8661 46ZM63.5661 46L56.3782 52.9522L56.4361 53.0121L56.495 53.0711L63.5661 46ZM38.4 55.08L29.6442 59.9107L29.6804 59.9763L29.7176 60.0414L38.4 55.08ZM39.34 55.92L43.4559 46.8063L43.4558 46.8063L39.34 55.92ZM41.88 56.1L39.8405 46.3102L39.8404 46.3102L41.88 56.1ZM42.74 55.8L47.3975 64.6492L53.6559 61.3552L52.6353 54.3569L42.74 55.8ZM42.46 53.88L52.3553 52.4369L50.5651 40.1609L38.949 44.5166L42.46 53.88ZM42.12 53.98L39.9509 44.2181L39.9505 44.2182L42.12 53.98ZM41.24 53.84L33.7659 60.4837L33.9612 60.7033L34.169 60.9111L41.24 53.84ZM40.82 42.54L31.5352 46.2539L31.588 46.3858L31.6445 46.5161L40.82 42.54ZM40.06 41.62L30.3586 39.1946L28.5825 46.2987L34.819 50.1366L40.06 41.62ZM40.08 41.54V31.54H32.2723L30.3786 39.1146L40.08 41.54ZM43.44 41.54V51.54H53.44V41.54H43.44ZM43.44 39.38H53.44V29.38H43.44V39.38ZM38.34 39.38V29.38H36.0846L34.0476 30.3481L38.34 39.38ZM36.32 40.34L32.0276 31.3081L26.32 34.0206V40.34H36.32ZM36.32 41.54H26.32V51.54H36.32V41.54ZM37.64 42.06L45.2739 35.6006L45.2738 35.6006L37.64 42.06ZM68.6958 56L58.8427 57.7081L60.2802 66H68.6958V56ZM66.7958 45.04V35.04H54.913L56.9427 46.7481L66.7958 45.04ZM71.5558 56V66H79.0895L81.1678 58.7586L71.5558 56ZM72.8358 51.54L82.4478 54.2986L82.451 54.2872L72.8358 51.54ZM73.0958 50.54L82.8471 52.7563L82.8575 52.7103L82.8676 52.6643L73.0958 50.54ZM73.2558 49.66L63.4324 47.7889L63.3891 48.0164L63.3563 48.2458L73.2558 49.66ZM73.4158 48.78V38.78H65.0048L63.5637 47.0666L73.4158 48.78ZM73.4958 48.78L83.3894 47.3251L82.1328 38.78H73.4958V48.78ZM73.6958 50.12L63.8086 51.618L63.8348 51.791L63.8671 51.9629L73.6958 50.12ZM74.0158 51.54L64.3292 54.0238L64.3594 54.1416L64.3924 54.2587L74.0158 51.54ZM75.2758 56L65.6524 58.7187L67.7095 66H75.2758V56ZM78.2158 56V66H86.6465L88.0718 57.6906L78.2158 56ZM80.0958 45.04L89.9518 46.7306L91.9572 35.04H80.0958V45.04ZM77.1958 45.04V35.04H68.5419L67.2994 43.6043L77.1958 45.04ZM76.6358 48.9L86.4997 50.5439L86.5171 50.44L86.5322 50.3357L76.6358 48.9ZM76.4758 50.22L66.5208 49.272L66.5104 49.381L66.5024 49.4902L76.4758 50.22ZM76.3158 52.14V62.14H85.4479L86.2747 53.0453L76.3158 52.14ZM76.2558 52.14L66.4816 54.2533L68.1869 62.14H76.2558V52.14ZM75.9358 50.8L66.1814 53.0027L66.2238 53.1905L66.2734 53.3766L75.9358 50.8ZM75.6558 49.7L65.9319 52.0338L65.9882 52.2683L66.0558 52.4999L75.6558 49.7ZM75.4358 48.84L85.071 46.1636L85.063 46.1348L85.0548 46.1062L75.4358 48.84ZM74.3558 45.04L83.9748 42.3062L81.9097 35.04H74.3558V45.04ZM72.5358 45.04V35.04H64.9819L62.9167 42.3062L72.5358 45.04ZM71.4558 48.84L61.8367 46.1062L61.8286 46.1348L61.8206 46.1636L71.4558 48.84ZM71.2158 49.7L61.5861 47.0037L61.5484 47.1386L61.5144 47.2746L71.2158 49.7ZM70.9558 50.8L80.6942 53.0722L80.7023 53.0374L80.7102 53.0026L70.9558 50.8ZM70.6358 52.14V62.14H78.4949L80.3524 54.5036L70.6358 52.14ZM70.5758 52.14L60.6021 52.8654L61.2766 62.14H70.5758V52.14ZM70.3958 50.22L60.4408 51.1681L60.4533 51.2995L60.4693 51.4305L70.3958 50.22ZM70.2558 48.9L80.1786 47.6597L80.1695 47.5871L80.1593 47.5145L70.2558 48.9ZM69.7158 45.04L79.6193 43.6545L78.4142 35.04H69.7158V45.04ZM70.1428 43.52H60.1428V53.52H70.1428V43.52ZM70.1428 42.26L66.3032 33.0265L60.1428 35.5882V42.26H70.1428ZM79.3028 43.52V53.52H89.3028V43.52H79.3028ZM79.3028 41.42H89.3028V31.42H79.3028V41.42ZM72.1628 41.42V31.42H70.1665L68.3232 32.1865L72.1628 41.42ZM84.267 55.72L79.7949 64.6643L79.89 64.7118L79.9862 64.7574L84.267 55.72ZM90.167 55.72L94.51 64.7277L94.5748 64.6964L94.6392 64.6643L90.167 55.72ZM91.807 54.1L82.8292 49.6957L82.8291 49.6958L91.807 54.1ZM92.3259 51.64V41.64H82.4815L82.3272 51.4832L92.3259 51.64ZM93.487 51.64V61.64H103.487V51.64H93.487ZM93.487 49.7H103.487V39.7H93.487V49.7ZM92.327 49.7H82.327V59.7H92.327V49.7ZM92.327 45.04H102.327V35.04H92.327V45.04ZM89.347 45.04V35.04H79.347V45.04H89.347ZM89.347 49.7V59.7H99.347V49.7H89.347ZM88.247 49.52L80.4383 55.7669L80.6005 55.9696L80.773 56.1637L88.247 49.52ZM88.107 48.78L78.4056 46.3548L78.2805 46.855L78.2076 47.3655L88.107 48.78ZM88.207 48.5L97.1512 52.9723L102.994 41.2881L90.1894 38.6985L88.207 48.5ZM86.427 48.14L88.4094 38.3385L82.5632 37.1561L78.7448 41.7382L86.427 48.14ZM86.247 50.54L77.0939 54.5674L77.1246 54.6372L77.1564 54.7066L86.247 50.54ZM87.007 51.34L81.909 59.9429L82.0946 60.0529L82.2848 60.1548L87.007 51.34ZM89.347 51.64H99.347V41.64H89.347V51.64ZM88.867 53.36L96.215 60.1428L96.2787 60.0738L96.3411 60.0036L88.867 53.36ZM85.587 53.32L78.1276 59.9801L78.1927 60.053L78.2591 60.1246L85.587 53.32ZM85.087 45.04H95.087V35.04H85.087V45.04ZM82.107 45.04V35.04H72.107V45.04H82.107ZM82.627 54.1L73.6491 58.5042L73.6492 58.5043L82.627 54.1ZM101.843 56H91.8431V66H101.843V56ZM101.843 51.3676H111.843V40.3276L100.857 41.4163L101.843 51.3676ZM104.783 56V66H114.783V56H104.783ZM104.403 47.08L95.3658 51.361L95.4343 51.5056L95.5074 51.6479L104.403 47.08ZM104.222 46.7706L99.1185 38.1709L89.7503 43.7306L96.0897 52.5899L104.222 46.7706ZM104.583 46.52L98.4049 38.6569L98.3351 38.7116L98.2664 38.7676L104.583 46.52ZM105.383 45.52L96.258 41.4295L96.2242 41.5049L96.1916 41.5809L105.383 45.52ZM105.643 44.32H115.643V34.32H105.643V44.32ZM103.023 44.32V34.32H93.3867L93.03 43.9498L103.023 44.32ZM102.603 45.24L109.293 52.6729L109.393 52.5828L109.491 52.49L102.603 45.24ZM102.533 45.3003L97.0749 53.6794L103.22 57.6821L108.884 53.0244L102.533 45.3003ZM101.963 45.04L99.0063 54.5929L99.0378 54.6026L99.0693 54.6121L101.963 45.04ZM97.6231 45.08L100.177 54.7484L100.262 54.726L100.346 54.7021L97.6231 45.08ZM95.9831 45.64L91.6357 36.6345L85.9831 39.3633V45.64H95.9831ZM95.9831 48.12H85.9831V65.5303L101.022 56.7578L95.9831 48.12ZM97.6831 47.4L100.61 56.962L100.671 56.9435L100.731 56.9242L97.6831 47.4ZM101.323 47.5L107.607 39.7206L107.606 39.7205L101.323 47.5ZM101.843 49.1975L102.622 59.1671L111.843 58.4467V49.1975H101.843ZM99.7631 49.36L98.9842 39.3904L98.9718 39.3914L98.9593 39.3924L99.7631 49.36ZM96.1231 50.52L89.7475 42.816L89.7145 42.8433L89.6817 42.8709L96.1231 50.52ZM95.9031 55.38L89.2494 62.8451L89.2892 62.8806L89.3295 62.9157L95.9031 55.38ZM99.6431 56.12L101.164 66.0037L101.164 66.0037L99.6431 56.12ZM100.543 55.9L104 65.2834L111.551 62.5015L110.449 54.5301L100.543 55.9ZM100.283 54.02L110.189 52.6501L108.59 41.0876L97.4095 44.4418L100.283 54.02ZM99.8431 54.14L101.487 64.0039L101.881 63.9383L102.268 63.8414L99.8431 54.14ZM98.3431 53.88L92.1467 61.7288L92.244 61.8057L92.3432 61.8801L98.3431 53.88ZM98.4231 52.02L92.4231 44.02L92.341 44.0816L92.2601 44.1449L98.4231 52.02ZM100.103 51.54L99.117 41.5887L99.1081 41.5896L100.103 51.54ZM102.231 61.22H92.2311V71.22H102.231V61.22ZM104.791 61.22V71.22H114.791V61.22H104.791ZM104.391 57.66L111.462 50.5889L111.372 50.4983L111.279 50.4101L104.391 57.66ZM102.031 57.38L103.992 67.1858L104.032 67.178L104.071 67.1698L102.031 57.38ZM101.251 57.58L97.8876 48.1626L90.5434 50.7856L91.298 58.5477L101.251 57.58ZM101.391 59.02L91.438 59.9877L92.7279 73.2554L105.105 68.3048L101.391 59.02ZM101.591 58.96L99.63 49.1542L99.6295 49.1543L101.591 58.96ZM109.314 55.74L104.263 64.3701L104.386 64.4423L104.511 64.511L109.314 55.74ZM113.614 55.66L108.207 47.2482L108.16 47.278L108.114 47.3083L113.614 55.66ZM114.794 54.32V44.32H108.179L105.591 50.4087L114.794 54.32ZM114.974 54.32L124.798 52.4489L123.249 44.32H114.974V54.32ZM115.294 56L105.471 57.8711L107.019 66H115.294V56ZM117.574 56V66H127.574V56H117.574ZM117.574 45.04H127.574V35.04H117.574V45.04ZM114.574 45.04V35.04H104.574V45.04H114.574ZM113.994 52.8L122.09 58.6697L122.125 58.6224L122.159 58.5746L113.994 52.8ZM111.074 53.1L118.582 46.4938L118.581 46.4937L111.074 53.1ZM110.634 45.04H120.634V35.04H110.634V45.04ZM107.634 45.04V35.04H97.6344V45.04H107.634ZM108.054 54.32L98.9243 58.3994L98.9602 58.4797L98.9975 58.5594L108.054 54.32ZM113.184 43.24L117.787 34.3625L117.787 34.3624L113.184 43.24ZM119.704 43.52V53.52H129.704V43.52H119.704ZM119.704 41.58H129.704V31.58H119.704V41.58ZM114.844 41.44L108.201 48.9142L108.23 48.9401L108.259 48.9657L114.844 41.44ZM114.704 40.74L124.319 43.4871L124.531 42.7453L124.627 41.9799L114.704 40.74ZM114.764 40.44L124.379 43.187L127.574 32.0032L116.038 30.5215L114.764 40.44ZM112.584 40.16L113.858 30.2415L107.311 29.4006L103.965 35.0898L112.584 40.16ZM112.284 40.9L121.955 43.4452L121.97 43.3853L121.985 43.3253L112.284 40.9ZM112.424 42.54L121.282 37.8999L121.243 37.8253L121.203 37.7514L112.424 42.54ZM121.684 55.26L115.09 62.7776L115.09 62.7776L121.684 55.26ZM128.444 55.26L134.973 62.8341L135.011 62.8021L135.047 62.7697L128.444 55.26ZM129.604 45.04H139.604V35.04H129.604V45.04ZM126.624 45.04V35.04H116.624V45.04H126.624ZM126.244 53.48L133.812 60.0162L133.884 59.9333L133.954 59.8488L126.244 53.48ZM124.244 53.74L119.174 62.3593L119.467 62.532L119.772 62.6843L124.244 53.74ZM123.704 53.14L114.513 57.0793L114.628 57.3493L114.76 57.6121L123.704 53.14ZM123.724 50.12L114.962 45.3008L114.867 45.4726L114.78 45.6479L123.724 50.12ZM124.204 49.26L132.91 54.1805L132.919 54.1633L132.929 54.1461L124.204 49.26ZM124.664 48.3L133.976 51.9441L134.002 51.8779L134.027 51.8113L124.664 48.3ZM124.604 45.96L133.684 41.7695L133.684 41.7693L124.604 45.96ZM123.824 45.16L119.083 53.9647L119.152 54.0017L119.221 54.0375L123.824 45.16ZM121.264 45L122.808 54.8801L122.931 54.8609L123.053 54.8387L121.264 45ZM120.064 45.4L115.342 36.5852L108.437 40.2841L110.375 47.8738L120.064 45.4ZM120.544 47.28L110.855 49.7538L113.827 61.3937L124.734 56.3597L120.544 47.28ZM121.004 47.1L118.373 37.4523L118.251 37.4855L118.13 37.5218L121.004 47.1ZM121.864 47.2L114.793 54.2711L115.233 54.7114L115.725 55.0937L121.864 47.2ZM121.824 48.44L113.291 43.2256L113.247 43.2973L113.205 43.3697L121.824 48.44ZM121.304 49.22L129.391 55.1017L129.391 55.1017L121.304 49.22ZM120.764 50.2L129.974 54.0964L130 54.0349L130.025 53.973L120.764 50.2ZM133.56 55.06L126.313 61.9506L126.371 62.0115L126.43 62.0714L133.56 55.06ZM141.1 55.06L133.912 48.1078L133.91 48.1097L141.1 55.06ZM142.28 45.04H152.28V35.04H142.28V45.04ZM139.28 45.04V35.04H129.28V45.04H139.28ZM138.8 53.32L131.207 46.8122L131.197 46.8237L131.188 46.8353L138.8 53.32ZM135.86 53.32L128.133 59.6674L128.256 59.818L128.386 59.9636L135.86 53.32ZM135.4 45.04H145.4V35.04H135.4V45.04ZM132.4 45.04V35.04H122.4V45.04H132.4ZM136.251 43.54H126.251V53.54H136.251V43.54ZM136.251 42.54L133.504 32.9248L126.251 34.997V42.54H136.251ZM142.791 43.54V53.54H152.791V43.54H142.791ZM142.791 41.6H152.791V31.6H142.791V41.6ZM139.742 41.6L131.759 35.5776L119.672 51.6H139.742V41.6ZM139.811 41.5L148.266 46.8404L148.369 46.6773L148.465 46.5104L139.811 41.5ZM139.531 39.44L145.963 31.783L145.889 31.7211L145.814 31.6606L139.531 39.44ZM137.131 39.14L138.775 49.0039L138.967 48.972L139.157 48.9326L137.131 39.14ZM136.131 39.58L129.655 31.9607L124.757 36.1239L126.51 42.3082L136.131 39.58ZM136.511 40.92L126.89 43.6482L129.994 54.5929L140.45 50.1114L136.511 40.92ZM136.831 40.8L133.669 31.3131L133.669 31.3132L136.831 40.8ZM137.471 41.94L144.254 49.2881L144.254 49.288L137.471 41.94ZM147.976 56H137.976V66H147.976V56ZM150.976 56V66H160.976V56H150.976ZM150.476 46.18L142.021 51.52L142.103 51.6506L142.19 51.7785L150.476 46.18ZM149.136 45.1L145.576 54.4449L145.612 54.4587L145.648 54.4722L149.136 45.1ZM145.316 44.98L142.89 35.2786L142.89 35.2786L145.316 44.98ZM144.076 45.38L139.938 36.2763L134.076 38.9409V45.38H144.076ZM144.076 47.78H134.076V64.5692L148.839 56.573L144.076 47.78ZM145.096 47.34L142.036 37.8197L141.985 37.8362L141.934 37.8532L145.096 47.34ZM147.576 47.54L140.505 54.611L140.595 54.7017L140.688 54.7901L147.576 47.54ZM65.7294 50H76.8194V30H65.7294V50ZM75.6096 38.4568C73.1799 22.9001 59.7389 11 43.5 11V31C49.7328 31 54.9165 35.5716 55.8492 41.5432L75.6096 38.4568ZM43.5 11C25.5507 11 11 25.5507 11 43.5H31C31 36.5964 36.5964 31 43.5 31V11ZM11 43.5C11 61.4493 25.5507 76 43.5 76V56C36.5964 56 31 50.4036 31 43.5H11ZM43.5 76C45.2091 76 46.8939 75.8672 48.5432 75.6096L45.4568 55.8492C44.825 55.9479 44.172 56 43.5 56V76ZM57 76.8194V65.7294H37V76.8194H57ZM43.5 87C45.0275 87 46.5398 86.9209 48.0326 86.7659L45.9674 66.8728C45.1595 66.9567 44.3365 67 43.5 67V87ZM0 43.5C0 67.5244 19.4756 87 43.5 87V67C30.5213 67 20 56.4787 20 43.5H0ZM43.5 0C19.4756 0 0 19.4756 0 43.5H20C20 30.5213 30.5213 20 43.5 20V0ZM86.7659 38.9674C84.4924 17.0682 65.9959 0 43.5 0V20C55.6432 20 65.6463 29.2185 66.8728 41.0326L86.7659 38.9674ZM57 65.7294V56.2085H37V65.7294H57ZM48.5432 75.6096C57.72 74.1763 65.5953 68.9215 70.5212 61.5626L53.901 50.4374C51.9863 53.2979 48.9459 55.3042 45.4568 55.8492L48.5432 75.6096ZM64.7661 46H62.2111V66H64.7661V46ZM54.7661 50.8674V56H74.7661V50.8674H54.7661ZM74.2153 54.1405C75.3746 50.7937 76 47.2093 76 43.5H56C56 44.9513 55.7567 46.3246 55.3169 47.5944L74.2153 54.1405ZM76 43.5C76 41.7909 75.8672 40.1061 75.6096 38.4568L55.8492 41.5432C55.9479 42.175 56 42.828 56 43.5H76ZM47 50H65.7294V30H47V50ZM57 44.8858V40H37V44.8858H57ZM49.3228 54.5699C49.0321 54.6725 48.7963 54.7244 48.6374 54.7508L45.3626 35.0207C44.4859 35.1663 43.5798 35.3877 42.6662 35.7101L49.3228 54.5699ZM52.2232 52.4269C51.1705 53.7428 49.9366 54.3669 49.1568 54.6268L42.8323 35.6532C40.6925 36.3664 38.4052 37.6838 36.6058 39.9331L52.2232 52.4269ZM53.8545 47.98C53.8545 48.9866 53.5678 50.7462 52.2232 52.4269L36.6058 39.9331C34.5146 42.5471 33.8545 45.5067 33.8545 47.98H53.8545ZM52.7345 44.28C53.6983 45.8221 53.8545 47.2502 53.8545 47.98H33.8545C33.8545 49.9898 34.2774 52.4846 35.7745 54.88L52.7345 44.28ZM50.4449 42.0057C51.0872 42.3776 51.9224 43.038 52.615 44.0935L35.894 55.0665C37.1467 56.9753 38.7685 58.3557 40.4242 59.3143L50.4449 42.0057ZM50.5399 42.0338C50.4417 41.9966 50.3865 41.972 50.3679 41.9633C50.3487 41.9545 50.3778 41.9669 50.4449 42.0057L40.4241 59.3143C41.4372 59.9007 42.471 60.3644 43.4601 60.7388L50.5399 42.0338ZM57 53.8229V51.3863H37V53.8229H57ZM44.2384 63.4585C44.6068 63.5478 44.9792 63.624 45.3553 63.6867L48.6447 43.9591C48.7492 43.9765 48.8513 43.9974 48.9506 44.0215L44.2384 63.4585ZM41.4353 62.5315C42.3751 62.9342 43.3177 63.2353 44.2385 63.4585L48.9506 44.0215C48.9914 44.0314 49.1206 44.0658 49.3137 44.1485L41.4353 62.5315ZM39.5954 61.6422C40.2244 61.9882 40.8542 62.2824 41.4353 62.5315L49.3137 44.1485C49.2377 44.116 49.1932 44.0952 49.1757 44.0868C49.1573 44.078 49.1793 44.0879 49.2336 44.1178L39.5954 61.6422ZM53.0044 58.5882L53.8444 56.2082L34.9846 49.5518L34.1446 51.9318L53.0044 58.5882ZM47.8263 46.2342C47.7628 46.2203 47.9165 46.2461 48.2002 46.3942L38.9488 64.1258C40.4593 64.9139 42.0129 65.4331 43.5228 65.7658L47.8263 46.2342ZM47.9689 46.2555C47.9258 46.2513 47.8674 46.2431 47.792 46.2268L43.557 65.7732C44.3694 65.9493 45.1947 66.08 46.0311 66.1614L47.9689 46.2555ZM57 51.3863V48.3293H37V51.3863H57ZM50.6292 42.0666C50.5963 42.0548 50.5666 42.0439 50.5398 42.0337L43.4602 60.7388C43.6001 60.7917 43.7401 60.8433 43.8798 60.8934L50.6292 42.0666ZM52.3909 42.7303C51.7376 42.4539 51.0668 42.2098 50.4168 41.9932L44.0923 60.9668C44.4023 61.0702 44.5581 61.1327 44.5982 61.1497L52.3909 42.7303ZM56.0574 45.032C54.5765 43.6651 53.0102 42.9627 52.0843 42.6066L44.9047 61.2734C44.7273 61.2052 44.4195 61.076 44.0363 60.8598C43.6614 60.6483 43.1002 60.2897 42.4917 59.728L56.0574 45.032ZM59.5545 52.96C59.5545 49.6909 58.0832 46.5836 55.4527 44.5168L43.0964 60.2432C42.12 59.4761 41.1621 58.3975 40.479 56.9825C39.7975 55.5708 39.5545 54.1665 39.5545 52.96H59.5545ZM54.0959 62.3624C57.4615 60.4392 59.5545 56.9031 59.5545 52.96H39.5545C39.5545 51.622 39.8617 49.97 40.8117 48.3413C41.7596 46.7165 43.0367 45.647 44.1731 44.9976L54.0959 62.3624ZM47.9345 63.9C49.057 63.9 51.4811 63.8021 53.9537 62.4421L44.3153 44.9179C45.3794 44.3326 46.3071 44.105 46.8312 44.0089C47.3766 43.909 47.7714 43.9 47.9345 43.9V63.9ZM45.3551 63.6867C46.2108 63.8294 47.0726 63.9 47.9345 63.9V43.9C48.167 43.9 48.4057 43.9192 48.6449 43.9591L45.3551 63.6867ZM57 56.2085V53.8229H37V56.2085H57ZM48.0545 46.26C48.0318 46.26 48.0037 46.2589 47.9689 46.2555L46.0311 66.1614C46.702 66.2267 47.3769 66.26 48.0545 66.26V46.26ZM46.3559 46.7994C47.0497 46.4596 47.5944 46.3379 47.8392 46.2944C48.0907 46.2497 48.1818 46.26 48.0545 46.26V66.26C49.9383 66.26 52.5654 66.0281 55.1532 64.7606L46.3559 46.7994ZM43.2364 49.9368C44.1488 48.1576 45.4734 47.2481 46.2098 46.8724L55.2992 64.6876C57.3423 63.6452 59.5869 61.8825 61.0327 59.0632L43.2364 49.9368ZM42.5545 52.8C42.5545 51.774 42.8109 50.7462 43.2805 49.8517L60.9885 59.1483C62.0182 57.1871 62.5545 55.026 62.5545 52.8H42.5545ZM43.576 56.3254C42.7 54.8501 42.5545 53.5038 42.5545 52.8H62.5545C62.5545 50.8429 62.1557 48.4432 60.7731 46.1146L43.576 56.3254ZM45.88 58.6728C45.1219 58.2095 44.1744 57.3949 43.4587 56.1226L60.8903 46.3175C59.6947 44.1918 58.0272 42.6572 56.3091 41.6072L45.88 58.6728ZM46.0634 58.7899C46.1553 58.8217 46.1822 58.8353 46.1565 58.8237C46.1318 58.8124 46.0325 58.766 45.88 58.6728L56.3091 41.6072C55.0636 40.8461 53.785 40.2984 52.6056 39.8901L46.0634 58.7899ZM44.9345 58.4003C45.1678 58.4753 45.5026 58.5892 45.9559 58.7519L52.7132 39.9281C52.1265 39.7174 51.5679 39.5247 51.0546 39.3597L44.9345 58.4003ZM41.2208 56.524C42.5239 57.4796 43.8219 58.0084 44.6312 58.2974L51.3579 39.4626C51.4408 39.4922 51.6294 39.5631 51.8879 39.6893C52.1362 39.8106 52.5549 40.0342 53.0482 40.396L41.2208 56.524ZM39.2446 54.6424C39.7984 55.3227 40.3878 55.8765 40.9564 56.3232L53.3127 40.5968C53.7771 40.9616 54.2767 41.4283 54.7554 42.0163L39.2446 54.6424ZM57 48.3293V47.5115H37V48.3293H57ZM42.6344 38.4417C41.628 38.9689 40.4217 39.7962 39.345 41.0772L54.655 53.9459C53.7139 55.0655 52.6906 55.7518 51.9147 56.1583L42.6344 38.4417ZM48.5145 37.08C47.3729 37.08 45.0377 37.1828 42.6344 38.4417L51.9146 56.1583C50.9045 56.6874 50.0342 56.8938 49.5415 56.9812C49.0292 57.0721 48.6621 57.08 48.5145 57.08V37.08ZM51.6148 37.3822C50.63 37.1916 49.5924 37.08 48.5145 37.08V57.08C48.21 57.08 47.9723 57.0484 47.8143 57.0178L51.6148 37.3822ZM53.7354 37.872C52.8925 37.6223 52.0598 37.4451 51.2583 37.3199L48.1708 57.0801C48.1948 57.0839 48.1963 57.0848 48.1778 57.0808C48.1593 57.0767 48.1169 57.0667 48.0537 57.048L53.7354 37.872ZM56.0525 38.7318C55.1498 38.307 54.2844 38.0284 53.6417 37.8448L48.1473 57.0752C48.1732 57.0826 48.1357 57.0728 48.0494 57.0421C47.9691 57.0136 47.7862 56.9457 47.5366 56.8282L56.0525 38.7318ZM41.7945 45.42V47.78H61.7945V45.42H41.7945ZM48.4334 54.7658C48.4316 54.7655 48.2989 54.7395 48.073 54.6653C47.8582 54.5947 47.4363 54.4406 46.9086 54.1451L56.6805 36.6949C55.0548 35.7846 53.4426 35.3716 52.3557 35.1542L48.4334 54.7658ZM48.3745 54.78C48.4818 54.78 48.539 54.7844 48.552 54.7855C48.5651 54.7867 48.5227 54.7837 48.4334 54.7658L52.3557 35.1542C50.9873 34.8805 49.6416 34.78 48.3745 34.78V54.78ZM48.6374 54.7508C48.4517 54.7816 48.3565 54.78 48.3745 54.78V34.78C47.4096 34.78 46.398 34.8489 45.3626 35.0208L48.6374 54.7508ZM57 47.5115V44.8858H37V47.5115H57ZM39.3451 41.0771C37.6668 43.0736 36.8545 45.5147 36.8545 47.92H56.8545C56.8545 50.0114 56.1392 52.1802 54.6549 53.946L39.3451 41.0771ZM36.8545 47.92C36.8545 50.3712 37.6942 52.7378 39.2448 54.6425L54.7552 42.0161C56.1118 43.6826 56.8545 45.7764 56.8545 47.92H36.8545ZM70.5212 61.5626C72.0488 59.2805 73.2975 56.79 74.2153 54.1405L55.3169 47.5944C54.9673 48.6038 54.4897 49.5579 53.901 50.4374L70.5212 61.5626ZM62.2111 46H61.7861V66H62.2111V46ZM71.7861 56V49.46H51.7861V56H71.7861ZM71.7861 49.46C71.7861 47.2495 71.2589 44.1469 68.9683 41.3982L53.6039 54.2018C51.98 52.2531 51.7861 50.2571 51.7861 49.46H71.7861ZM69.1933 41.6783C66.2647 37.8955 62.1336 37.18 59.6861 37.18V57.18C58.7319 57.18 55.6675 56.8779 53.3788 53.9217L69.1933 41.6783ZM59.6861 37.18C57.1466 37.18 53.1851 37.9474 50.3019 41.5225L65.8702 54.0775C63.6538 56.826 60.7589 57.18 59.6861 57.18V37.18ZM50.2774 41.5531C48.0851 44.2934 47.6061 47.3348 47.6061 49.46H67.6061C67.6061 50.1718 67.4471 52.1066 65.8948 54.0469L50.2774 41.5531ZM47.6061 49.46V51.2H67.6061V49.46H47.6061ZM54.4438 60.6868L54.5038 60.7068L60.8284 41.7332L60.7684 41.7132L54.4438 60.6868ZM66.656 55.5996C66.3969 56.1314 65.3441 58.0854 62.7567 59.2796L54.3755 41.1204C51.0948 42.6346 49.4419 45.2686 48.6762 46.8404L66.656 55.5996ZM62.9043 59.21C62.0978 59.5983 61.4039 59.7701 60.9543 59.8501C60.5006 59.9309 60.1734 59.94 60.0261 59.94V39.94C58.6381 39.94 56.4715 40.1097 54.2279 41.19L62.9043 59.21ZM60.0261 59.94H60.4861V39.94H60.0261V59.94ZM50.4861 49.94V52.18H70.4861V49.94H50.4861ZM60.4861 42.18H60.0261V62.18H60.4861V42.18ZM60.0261 42.18C58.494 42.18 55.7212 42.393 53.0336 44.1503L63.9786 60.8897C62.9292 61.5759 61.9616 61.8823 61.329 62.0238C60.6971 62.1652 60.2313 62.18 60.0261 62.18V42.18ZM53.0336 44.1503C50.9488 45.5134 49.2702 47.5323 48.3687 50.0567L67.2035 56.7833C66.5687 58.561 65.37 59.9799 63.9786 60.8897L53.0336 44.1503ZM48.2993 50.2578C47.7806 51.8136 47.6061 53.3148 47.6061 54.64H67.6061C67.6061 55.0585 67.5516 55.7464 67.2729 56.5822L48.2993 50.2578ZM47.6061 54.64V56H67.6061V54.64H47.6061ZM57.6061 46H54.6461V66H57.6061V46ZM64.6461 56V49.5H44.6461V56H64.6461ZM64.6461 49.5C64.6461 49.6949 64.5627 51.4726 62.8785 53.1293L48.8537 38.8707C45.5428 42.1274 44.6461 46.2384 44.6461 49.5H64.6461ZM62.9372 53.0711C61.085 54.9232 59.2399 54.78 59.7261 54.78V34.78C56.6923 34.78 52.2738 35.4501 48.795 38.9289L62.9372 53.0711ZM59.7261 54.78C59.894 54.78 59.5836 54.8047 58.9882 54.6156C58.3441 54.4109 57.3339 53.9404 56.3782 52.9522L70.754 39.0478C67.2477 35.4226 62.7097 34.78 59.7261 34.78V54.78ZM56.495 53.0711C54.8312 51.4073 54.7661 49.651 54.7661 49.5H74.7661C74.7661 46.2823 73.901 42.1927 70.6372 38.9289L56.495 53.0711ZM54.7661 49.5V50.8674H74.7661V49.5H54.7661ZM48.08 45.04V43.78H28.08V45.04H48.08ZM48.08 47.04V45.04H28.08V47.04H48.08ZM48.08 53.64V47.04H28.08V53.64H48.08ZM47.1558 50.2493C47.9664 51.7185 48.08 53.0136 48.08 53.64H28.08C28.08 55.413 28.4069 57.6682 29.6442 59.9107L47.1558 50.2493ZM43.4558 46.8063C44.8525 47.437 46.1902 48.5571 47.0824 50.1186L29.7176 60.0414C31.0365 62.3495 33.0008 64.0296 35.2242 65.0337L43.4558 46.8063ZM40.86 46.2C41.2428 46.2 42.2296 46.2525 43.4559 46.8063L35.2241 65.0337C37.2771 65.9608 39.2772 66.2 40.86 66.2V46.2ZM39.8404 46.3102C40.2549 46.2238 40.603 46.2 40.86 46.2V66.2C41.837 66.2 42.8651 66.1095 43.9196 65.8898L39.8404 46.3102ZM38.0825 46.9508C38.7609 46.5938 39.3749 46.4072 39.8405 46.3102L43.9195 65.8898C45.0251 65.6595 46.2124 65.2729 47.3975 64.6492L38.0825 46.9508ZM32.5647 55.3231L32.8447 57.2431L52.6353 54.3569L52.3553 52.4369L32.5647 55.3231ZM44.2891 63.7419C44.8301 63.6217 45.3945 63.4596 45.971 63.2434L38.949 44.5166C39.3122 44.3804 39.6499 44.285 39.9509 44.2181L44.2891 63.7419ZM41.78 64.02C42.7168 64.02 43.5625 63.9034 44.2895 63.7418L39.9505 44.2182C40.4375 44.1099 41.0565 44.02 41.78 44.02V64.02ZM34.169 60.9111C36.8257 63.5678 39.9985 64.02 41.78 64.02V44.02C43.0815 44.02 45.8943 44.3522 48.311 46.7689L34.169 60.9111ZM31.08 53.28C31.08 54.6356 31.3174 57.7291 33.7659 60.4837L48.7141 47.1963C50.9493 49.7109 51.08 52.4311 51.08 53.28H31.08ZM31.08 47.04V53.28H51.08V47.04H31.08ZM31.08 45.04V47.04H51.08V45.04H31.08ZM31.08 44.12V45.04H51.08V44.12H31.08ZM31.6445 46.5161C31.3417 45.8175 31.209 45.2314 31.1477 44.8587C31.0857 44.4821 31.08 44.2216 31.08 44.12H51.08C51.08 42.7181 50.9143 40.684 49.9955 38.5639L31.6445 46.5161ZM34.819 50.1366C33.2266 49.1566 32.123 47.7234 31.5352 46.2539L50.1048 38.8261C49.197 36.5566 47.5868 34.5101 45.301 33.1034L34.819 50.1366ZM30.3786 39.1146L30.3586 39.1946L49.7614 44.0454L49.7814 43.9654L30.3786 39.1146ZM43.44 31.54H40.08V51.54H43.44V31.54ZM33.44 39.38V41.54H53.44V39.38H33.44ZM38.34 49.38H43.44V29.38H38.34V49.38ZM40.6124 49.3719L42.6324 48.4119L34.0476 30.3481L32.0276 31.3081L40.6124 49.3719ZM46.32 41.54V40.34H26.32V41.54H46.32ZM45.2738 35.6006C42.5563 32.3889 38.9264 31.54 36.32 31.54V51.54C35.6502 51.54 34.6156 51.4432 33.4248 50.9741C32.1731 50.481 30.9719 49.6607 30.0062 48.5194L45.2738 35.6006ZM48.08 43.78C48.08 42.2384 47.8901 38.6925 45.2739 35.6006L30.0061 48.5194C28.9262 47.2431 28.4742 45.9798 28.282 45.2283C28.0901 44.4784 28.08 43.944 28.08 43.78H48.08ZM78.5488 54.2919L76.6488 43.3319L56.9427 46.7481L58.8427 57.7081L78.5488 54.2919ZM71.5558 46H68.6958V66H71.5558V46ZM63.2238 48.7814L61.9438 53.2414L81.1678 58.7586L82.4478 54.2986L63.2238 48.7814ZM63.3445 48.3237C63.3279 48.3965 63.2906 48.5477 63.2205 48.7928L82.451 54.2872C82.5943 53.7856 82.7303 53.2702 82.8471 52.7563L63.3445 48.3237ZM63.3563 48.2458C63.3538 48.2635 63.345 48.3191 63.324 48.4157L82.8676 52.6643C82.9799 52.1476 83.0778 51.6165 83.1553 51.0742L63.3563 48.2458ZM63.5637 47.0666C63.5187 47.3254 63.4749 47.5659 63.4324 47.7889L83.0792 51.5311C83.1434 51.1941 83.2062 50.848 83.2679 50.4934L63.5637 47.0666ZM73.4958 38.78H73.4158V58.78H73.4958V38.78ZM83.5829 48.622C83.5185 48.1967 83.454 47.7644 83.3894 47.3251L63.6022 50.2349C63.6709 50.7023 63.7397 51.1633 63.8086 51.618L83.5829 48.622ZM83.7024 49.0562C83.6113 48.701 83.5561 48.4455 83.5245 48.2771L63.8671 51.9629C63.9955 52.6478 64.1536 53.339 64.3292 54.0238L83.7024 49.0562ZM84.8991 53.2813L83.6391 48.8213L64.3924 54.2587L65.6524 58.7187L84.8991 53.2813ZM78.2158 46H75.2758V66H78.2158V46ZM70.2397 43.3494L68.3597 54.3094L88.0718 57.6906L89.9518 46.7306L70.2397 43.3494ZM77.1958 55.04H80.0958V35.04H77.1958V55.04ZM86.5322 50.3357L87.0922 46.4757L67.2994 43.6043L66.7394 47.4643L86.5322 50.3357ZM86.4307 51.168C86.4513 50.9518 86.469 50.7894 86.4831 50.6733C86.4979 50.5515 86.5044 50.5157 86.4997 50.5439L66.7718 47.2561C66.6621 47.9142 66.5828 48.6209 66.5208 49.272L86.4307 51.168ZM86.2747 53.0453C86.345 52.272 86.4037 51.5709 86.4491 50.9498L66.5024 49.4902C66.4679 49.9624 66.4199 50.5414 66.3568 51.2347L86.2747 53.0453ZM76.2558 62.14H76.3158V42.14H76.2558V62.14ZM66.2734 53.3766C66.3315 53.5943 66.4016 53.8831 66.4816 54.2533L86.0299 50.0267C85.8966 49.4103 85.7534 48.8057 85.5981 48.2234L66.2734 53.3766ZM66.0558 52.4999C66.0786 52.5781 66.1219 52.7391 66.1814 53.0027L85.6902 48.5973C85.563 48.0342 85.4197 47.4619 85.2558 46.9001L66.0558 52.4999ZM65.8006 51.5164C65.8265 51.6096 65.87 51.7759 65.9319 52.0338L85.3796 47.3662C85.2815 46.9574 85.1784 46.5504 85.071 46.1636L65.8006 51.5164ZM64.7367 47.7738L65.8167 51.5738L85.0548 46.1062L83.9748 42.3062L64.7367 47.7738ZM72.5358 55.04H74.3558V35.04H72.5358V55.04ZM81.0748 51.5738L82.1548 47.7738L62.9167 42.3062L61.8367 46.1062L81.0748 51.5738ZM80.8454 52.3963C80.94 52.0586 81.0219 51.765 81.091 51.5164L61.8206 46.1636C61.7563 46.395 61.6783 46.6747 61.5861 47.0037L80.8454 52.3963ZM80.7102 53.0026C80.7912 52.644 80.86 52.354 80.9172 52.1254L61.5144 47.2746C61.4115 47.686 61.3071 48.1293 61.2014 48.5974L80.7102 53.0026ZM80.3524 54.5036C80.4782 53.9866 80.5923 53.5088 80.6942 53.0722L61.2174 48.5278C61.1326 48.8912 61.0334 49.3067 60.9191 49.7764L80.3524 54.5036ZM70.5758 62.14H70.6358V42.14H70.5758V62.14ZM60.4693 51.4305C60.5111 51.7729 60.557 52.2442 60.6021 52.8654L80.5494 51.4146C80.4879 50.5691 80.4138 49.7604 80.3222 49.0095L60.4693 51.4305ZM60.333 50.1403C60.3551 50.3175 60.3911 50.6456 60.4408 51.1681L80.3507 49.2719C80.2938 48.6744 80.2364 48.1225 80.1786 47.6597L60.333 50.1403ZM59.8122 46.4255L60.3522 50.2855L80.1593 47.5145L79.6193 43.6545L59.8122 46.4255ZM66.7958 55.04H69.7158V35.04H66.7958V55.04ZM80.1428 43.52V42.26H60.1428V43.52H80.1428ZM79.3028 33.52H70.1428V53.52H79.3028V33.52ZM69.3028 41.42V43.52H89.3028V41.42H69.3028ZM72.1628 51.42H79.3028V31.42H72.1628V51.42ZM73.9825 51.4935L76.0025 50.6535L68.3232 32.1865L66.3032 33.0265L73.9825 51.4935ZM87.227 46.26C87.1018 46.26 87.1652 46.2497 87.3717 46.2874C87.5787 46.3251 88.0033 46.4246 88.5479 46.6826L79.9862 64.7574C82.5417 65.9679 85.1401 66.26 87.227 66.26V46.26ZM85.824 46.7123C86.3982 46.4355 86.8478 46.3295 87.0655 46.2895C87.2834 46.2495 87.3534 46.26 87.227 46.26V66.26C89.3012 66.26 91.9292 65.972 94.51 64.7277L85.824 46.7123ZM82.8291 49.6958C83.1372 49.0677 83.5659 48.4576 84.1095 47.9207C84.6481 47.3886 85.2065 47.0199 85.6949 46.7757L94.6392 64.6643C97.2176 63.3751 99.4133 61.3003 100.785 58.5042L82.8291 49.6958ZM82.3272 51.4832C82.3288 51.3813 82.3529 50.6665 82.8292 49.6957L100.785 58.5043C101.923 56.1849 102.293 53.83 102.325 51.7968L82.3272 51.4832ZM93.487 41.64H92.3259V61.64H93.487V41.64ZM83.487 49.7V51.64H103.487V49.7H83.487ZM92.327 59.7H93.487V39.7H92.327V59.7ZM82.327 45.04V49.7H102.327V45.04H82.327ZM89.347 55.04H92.327V35.04H89.347V55.04ZM99.347 49.7V45.04H79.347V49.7H99.347ZM88.687 59.7H89.347V39.7H88.687V59.7ZM80.773 56.1637C83.0927 58.7734 86.1558 59.7 88.687 59.7V39.7C89.665 39.7 90.9011 39.8586 92.2234 40.3995C93.5816 40.9552 94.7744 41.8113 95.7211 42.8763L80.773 56.1637ZM78.087 49.06C78.087 51.4669 78.8901 53.8317 80.4383 55.7669L96.0558 43.2731C97.3906 44.9417 98.087 46.9998 98.087 49.06H78.087ZM78.2076 47.3655C78.128 47.9226 78.087 48.4886 78.087 49.06H98.087C98.087 49.4447 98.0594 49.8241 98.0065 50.1945L78.2076 47.3655ZM79.2628 44.0277C78.8322 44.8889 78.5706 45.6947 78.4056 46.3548L97.8085 51.2052C97.6968 51.6519 97.5019 52.2711 97.1512 52.9723L79.2628 44.0277ZM84.4447 57.9415L86.2247 58.3015L90.1894 38.6985L88.4094 38.3385L84.4447 57.9415ZM95.8285 51.2053C95.6417 51.9524 95.1966 53.237 94.1093 54.5418L78.7448 41.7382C77.3908 43.363 76.7457 45.0742 76.4256 46.3547L95.8285 51.2053ZM96.027 49.54C96.027 50.2258 95.932 50.7911 95.8285 51.2053L76.4256 46.3547C76.1887 47.3022 76.027 48.3742 76.027 49.54H96.027ZM95.4002 46.5126C95.7598 47.33 96.027 48.3628 96.027 49.54H76.027C76.027 51.3839 76.4409 53.0833 77.0939 54.5674L95.4002 46.5126ZM92.105 42.7371C93.1585 43.3614 94.4859 44.5151 95.3377 46.3734L77.1564 54.7066C78.3015 57.2049 80.1355 58.892 81.909 59.9429L92.105 42.7371ZM88.507 41.64C88.797 41.64 90.1194 41.6628 91.7293 42.5252L82.2848 60.1548C84.6413 61.4172 86.9638 61.64 88.507 61.64V41.64ZM89.347 41.64H88.507V61.64H89.347V41.64ZM99.347 51.66V51.64H79.347V51.66H99.347ZM96.3411 60.0036C99.0257 56.9835 99.347 53.4813 99.347 51.66H79.347C79.347 51.3975 79.3697 50.7751 79.6033 49.9477C79.8442 49.0944 80.3505 47.8891 81.3929 46.7164L96.3411 60.0036ZM87.267 63.88C89.2129 63.88 93.1407 63.4733 96.215 60.1428L81.519 46.5772C83.9533 43.94 86.8145 43.88 87.267 43.88V63.88ZM78.2591 60.1246C81.2914 63.39 85.1458 63.88 87.267 63.88V43.88C87.8416 43.88 90.576 43.9966 92.9149 46.5154L78.2591 60.1246ZM75.087 51.66C75.087 53.7289 75.54 57.0819 78.1276 59.9801L93.0465 46.6599C94.9674 48.8114 95.087 51.0577 95.087 51.66H75.087ZM75.087 45.04V51.66H95.087V45.04H75.087ZM82.107 55.04H85.087V35.04H82.107V55.04ZM92.107 51.5V45.04H72.107V51.5H92.107ZM91.6049 49.6958C92.1032 50.7115 92.107 51.4468 92.107 51.5H72.107C72.107 53.6065 72.4575 56.0751 73.6491 58.5042L91.6049 49.6958ZM88.7392 46.7757C89.2276 47.0199 89.7859 47.3886 90.3246 47.9207C90.8681 48.4576 91.2968 49.0677 91.6049 49.6957L73.6492 58.5043C75.0208 61.3002 77.2164 63.375 79.7949 64.6643L88.7392 46.7757ZM111.843 56V51.3676H91.8431V56H111.843ZM104.783 46H101.843V66H104.783V46ZM94.7831 49V56H114.783V49H94.7831ZM95.5074 51.6479C94.7958 50.2621 94.7831 49.1793 94.7831 49H114.783C114.783 47.2474 114.517 44.8846 113.299 42.5121L95.5074 51.6479ZM96.0897 52.5899C95.7933 52.1757 95.5551 51.7606 95.3658 51.361L113.44 42.799C113.146 42.177 112.787 41.5556 112.354 40.9513L96.0897 52.5899ZM98.2664 38.7676C98.5703 38.52 98.8602 38.3243 99.1185 38.1709L109.326 55.3702C109.847 55.0609 110.377 54.6981 110.9 54.2724L98.2664 38.7676ZM96.1916 41.5809C96.7951 40.1727 97.6845 39.2228 98.4049 38.6569L110.761 54.3831C112.228 53.2305 113.651 51.6139 114.575 49.4591L96.1916 41.5809ZM95.6431 44.32C95.6431 43.2873 95.8696 42.296 96.258 41.4295L114.508 49.6105C115.243 47.9706 115.643 46.1794 115.643 44.32H95.6431ZM103.023 54.32H105.643V34.32H103.023V54.32ZM109.491 52.49C111.607 50.4793 112.904 47.7217 113.016 44.6902L93.03 43.9498C93.0684 42.9132 93.3014 41.7838 93.8112 40.6671C94.3193 39.5542 95.006 38.6642 95.7156 37.99L109.491 52.49ZM108.884 53.0244C109.019 52.9133 109.156 52.7962 109.293 52.6729L95.9135 37.8071C96.0051 37.7246 96.0948 37.6477 96.1818 37.5762L108.884 53.0244ZM99.0693 54.6121C98.4662 54.4298 97.7775 54.1371 97.0749 53.6794L107.991 36.9212C106.952 36.2445 105.884 35.7782 104.857 35.4679L99.0693 54.6121ZM100.063 54.78C99.9662 54.78 99.5769 54.7695 99.0063 54.5929L104.92 35.4871C103.229 34.9638 101.573 34.78 100.063 34.78V54.78ZM100.346 54.7021C100.155 54.7563 100.027 54.7749 99.9835 54.7803C99.9397 54.7856 99.9624 54.78 100.063 54.78V34.78C98.4436 34.78 96.6829 34.9533 94.8999 35.4579L100.346 54.7021ZM100.331 54.6455C100.188 54.7144 100.08 54.7597 100.017 54.7848C99.9531 54.8104 99.9169 54.8227 99.9146 54.8235C99.9115 54.8245 99.9314 54.8177 99.9779 54.8039C100.024 54.7901 100.09 54.7715 100.177 54.7484L95.0692 35.4116C94.11 35.665 92.8595 36.0436 91.6357 36.6345L100.331 54.6455ZM105.983 48.12V45.64H85.9831V48.12H105.983ZM94.756 37.838C93.5267 38.2143 92.2217 38.7372 90.9445 39.4822L101.022 56.7578C100.705 56.9428 100.533 56.9857 100.61 56.962L94.756 37.838ZM99.7231 37.08C97.9853 37.08 96.2776 37.3502 94.6354 37.8758L100.731 56.9242C100.422 57.0231 100.074 57.08 99.7231 57.08V37.08ZM107.606 39.7205C104.676 37.3537 101.42 37.08 99.7231 37.08V57.08C99.4715 57.08 98.894 57.0594 98.1241 56.8573C97.3389 56.6512 96.1953 56.2127 95.0398 55.2795L107.606 39.7205ZM111.843 48.88C111.843 46.5905 111.196 42.6197 107.607 39.7206L95.0397 55.2794C92.1437 52.9403 91.8431 49.8895 91.8431 48.88H111.843ZM111.843 49.1975V48.88H91.8431V49.1975H111.843ZM100.542 59.3296L102.622 59.1671L101.064 39.2279L98.9842 39.3904L100.542 59.3296ZM102.499 58.224C101.674 58.9069 100.948 59.1828 100.649 59.2779C100.351 59.3729 100.284 59.3504 100.567 59.3276L98.9593 39.3924C96.4701 39.5931 92.8323 40.2631 89.7475 42.816L102.499 58.224ZM104.983 53.08C104.983 53.75 104.859 54.6847 104.403 55.708C103.939 56.7507 103.266 57.578 102.565 58.1691L89.6817 42.8709C86.4832 45.5645 84.9831 49.3105 84.9831 53.08H104.983ZM102.557 47.9149C103.412 48.6769 104.079 49.6348 104.498 50.6811C104.899 51.6849 104.983 52.5436 104.983 53.08H84.9831C84.9831 56.2937 86.0817 60.0217 89.2494 62.8451L102.557 47.9149ZM98.5631 46.2C98.9174 46.2 100.693 46.2886 102.477 47.8443L89.3295 62.9157C92.3661 65.5647 95.9156 66.2 98.5631 66.2V46.2ZM98.1226 46.2363C98.3101 46.2074 98.4597 46.2 98.5631 46.2V66.2C99.4132 66.2 100.283 66.1392 101.164 66.0037L98.1226 46.2363ZM97.0861 46.5166C97.6136 46.3222 97.9931 46.2562 98.1226 46.2363L101.164 66.0037C101.986 65.8771 102.966 65.6645 104 65.2834L97.0861 46.5166ZM90.3774 55.3899L90.6374 57.2699L110.449 54.5301L110.189 52.6501L90.3774 55.3899ZM102.268 63.8414C102.552 63.7705 102.851 63.69 103.157 63.5982L97.4095 44.4418C97.4304 44.4355 97.4416 44.4325 97.442 44.4323C97.4426 44.4322 97.4348 44.4343 97.4178 44.4386L102.268 63.8414ZM99.3631 64.18C100.081 64.18 100.791 64.1199 101.487 64.0039L98.199 44.2761C98.5749 44.2134 98.9648 44.18 99.3631 44.18V64.18ZM92.3432 61.8801C94.7206 63.663 97.3145 64.18 99.3631 64.18V44.18C100.585 44.18 102.499 44.497 104.343 45.8799L92.3432 61.8801ZM87.9631 52.98C87.9631 55.6333 88.9219 59.1829 92.1467 61.7288L104.54 46.0312C105.748 46.9853 106.684 48.227 107.271 49.6153C107.831 50.9429 107.963 52.1405 107.963 52.98H87.9631ZM92.2601 44.1449C89.4557 46.3396 87.9631 49.6023 87.9631 52.98H107.963C107.963 54.0842 107.744 55.4097 107.096 56.7612C106.445 58.121 105.525 59.16 104.586 59.8951L92.2601 44.1449ZM99.1081 41.5896C97.9909 41.7013 95.0612 42.0415 92.4231 44.02L104.423 60.02C103.269 60.8853 102.236 61.2194 101.83 61.3352C101.584 61.4056 101.396 61.4434 101.286 61.4628C101.174 61.4826 101.108 61.4894 101.098 61.4904L99.1081 41.5896ZM100.857 41.4163L99.117 41.5887L101.089 61.4913L102.829 61.3188L100.857 41.4163ZM112.231 61.22V59.44H92.2311V61.22H112.231ZM104.791 51.22H102.231V71.22H104.791V51.22ZM94.7911 58.74V61.22H114.791V58.74H94.7911ZM97.3201 64.7311C95.3415 62.7525 94.7911 60.3655 94.7911 58.74H114.791C114.791 56.2079 113.974 53.1008 111.462 50.5889L97.3201 64.7311ZM103.011 67.28C102.746 67.28 102.078 67.2603 101.191 67.0162C100.292 66.7686 98.8649 66.2033 97.5035 64.9099L111.279 50.4101C108.16 47.4469 104.413 47.28 103.011 47.28V67.28ZM104.071 67.1698C103.707 67.2456 103.349 67.28 103.011 67.28V47.28C102.006 47.28 100.996 47.381 99.9915 47.5902L104.071 67.1698ZM104.615 66.9974C104.338 67.096 104.141 67.1485 104.07 67.1666C103.988 67.1875 103.957 67.1928 103.992 67.1858L100.07 47.5742C99.5454 47.6791 98.7417 47.8576 97.8876 48.1626L104.615 66.9974ZM111.344 58.0523L111.204 56.6123L91.298 58.5477L91.438 59.9877L111.344 58.0523ZM99.6295 49.1543C98.932 49.2938 98.2797 49.4942 97.6773 49.7352L105.105 68.3048C104.636 68.4924 104.117 68.6529 103.553 68.7657L99.6295 49.1543ZM101.791 48.94C101.053 48.94 100.329 49.0143 99.63 49.1542L103.552 68.7658C102.986 68.879 102.396 68.94 101.791 68.94V48.94ZM112.231 59.44C112.231 58.0238 111.947 55.0939 109.628 52.4587C107.095 49.5795 103.835 48.94 101.791 48.94V68.94C100.041 68.94 97.001 68.3838 94.614 65.6713C92.4416 63.2027 92.2311 60.5228 92.2311 59.44H112.231ZM111.374 46.2C111.79 46.2 112.856 46.278 114.118 46.969L104.511 64.511C106.893 65.8154 109.332 66.2 111.374 66.2V46.2ZM108.114 47.3083C109.777 46.2132 111.195 46.2 111.374 46.2V66.2C113.447 66.2 116.358 65.8268 119.114 64.0117L108.114 47.3083ZM105.591 50.4087C106.262 48.8306 107.338 47.807 108.207 47.2482L119.022 64.0718C121.011 62.793 122.874 60.8761 123.998 58.2313L105.591 50.4087ZM114.974 44.32H114.794V64.32H114.974V44.32ZM125.118 54.1289L124.798 52.4489L105.151 56.1911L105.471 57.8711L125.118 54.1289ZM117.574 46H115.294V66H117.574V46ZM107.574 45.04V56H127.574V45.04H107.574ZM114.574 55.04H117.574V35.04H114.574V55.04ZM124.574 50.28V45.04H104.574V50.28H124.574ZM122.159 58.5746C124.314 55.5279 124.574 52.1951 124.574 50.28H104.574C104.574 50.2799 104.574 50.2648 104.576 50.2357C104.577 50.2067 104.58 50.161 104.586 50.0999C104.597 49.9818 104.623 49.7813 104.684 49.517C104.799 49.0166 105.09 48.0726 105.83 47.0254L122.159 58.5746ZM112.354 63.6C115.993 63.6 119.668 62.0106 122.09 58.6697L105.898 46.9303C106.586 45.982 107.589 45.057 108.91 44.4123C110.207 43.7797 111.434 43.6 112.354 43.6V63.6ZM103.567 59.7062C106.234 62.7368 109.728 63.6 112.354 63.6V43.6C113.051 43.6 114.08 43.7023 115.253 44.1604C116.478 44.639 117.639 45.4231 118.582 46.4938L103.567 59.7062ZM100.634 51.5C100.634 53.1882 100.905 56.6806 103.567 59.7063L118.581 46.4937C119.653 47.7111 120.154 48.9529 120.386 49.7984C120.613 50.6237 120.634 51.2429 120.634 51.5H100.634ZM100.634 45.04V51.5H120.634V45.04H100.634ZM107.634 55.04H110.634V35.04H107.634V55.04ZM117.634 52.02V45.04H97.6344V52.02H117.634ZM117.184 50.2406C117.631 51.239 117.634 51.9505 117.634 52.02H97.6344C97.6344 53.9029 97.9182 56.1477 98.9243 58.3994L117.184 50.2406ZM114.366 47.1099C115.73 47.9085 116.628 49.0491 117.111 50.0806L98.9975 58.5594C100.067 60.8442 101.805 62.9315 104.263 64.3701L114.366 47.1099ZM114.664 33.52C114.828 33.52 115.188 33.5307 115.683 33.6243C116.175 33.7173 116.927 33.9162 117.787 34.3625L108.581 52.1175C110.931 53.336 113.228 53.52 114.664 53.52V33.52ZM119.704 33.52H114.664V53.52H119.704V33.52ZM109.704 41.58V43.52H129.704V41.58H109.704ZM115.404 51.58H119.704V31.58H115.404V51.58ZM108.259 48.9657C111.226 51.5619 114.59 51.58 115.404 51.58V31.58C115.799 31.58 116.551 31.609 117.489 31.8436C118.412 32.0742 119.939 32.6104 121.429 33.9143L108.259 48.9657ZM104.664 41C104.664 43.5311 105.591 46.5943 108.201 48.9142L121.488 33.9658C122.553 34.9125 123.409 36.1054 123.965 37.4637C124.505 38.786 124.664 40.0221 124.664 41H104.664ZM105.089 37.9929C104.859 38.7962 104.664 39.8177 104.664 41H124.664C124.664 42.0223 124.495 42.8705 124.319 43.4871L105.089 37.9929ZM105.149 37.693C104.967 38.3289 104.852 38.9369 104.781 39.5001L124.627 41.9799C124.583 42.3298 124.508 42.7378 124.379 43.187L105.149 37.693ZM111.31 50.0785L113.49 50.3585L116.038 30.5215L113.858 30.2415L111.31 50.0785ZM121.985 43.3253C121.831 43.9453 121.577 44.5949 121.203 45.2302L103.965 35.0898C103.324 36.1785 102.871 37.3214 102.583 38.4747L121.985 43.3253ZM122.184 41.62C122.184 42.3734 122.074 42.9936 121.955 43.4452L102.613 38.3548C102.361 39.3131 102.184 40.4133 102.184 41.62H122.184ZM121.203 37.7514C121.808 38.8597 122.184 40.1918 122.184 41.62H102.184C102.184 43.6882 102.721 45.6336 103.645 47.3286L121.203 37.7514ZM117.787 34.3624C118.733 34.8526 120.241 35.9121 121.282 37.8999L103.566 47.1801C104.9 49.7279 106.915 51.254 108.581 52.1176L117.787 34.3624ZM125.064 46.26C124.868 46.26 126.514 46.1949 128.278 47.7424L115.09 62.7776C118.374 65.6585 122.274 66.26 125.064 66.26V46.26ZM121.915 47.6859C122.752 46.9638 123.59 46.5961 124.182 46.4209C124.47 46.3358 124.696 46.2967 124.839 46.2783C124.983 46.2599 125.062 46.26 125.064 46.26V66.26C127.885 66.26 131.719 65.6396 134.973 62.8341L121.915 47.6859ZM119.604 52.26C119.604 51.9624 119.646 51.2758 119.987 50.3935C120.35 49.4561 120.968 48.5175 121.841 47.7503L135.047 62.7697C138.555 59.6854 139.604 55.5885 139.604 52.26H119.604ZM119.604 45.04V52.26H139.604V45.04H119.604ZM126.624 55.04H129.604V35.04H126.624V55.04ZM136.624 52.18V45.04H116.624V52.18H136.624ZM133.954 59.8488C136.19 57.1419 136.624 54.1302 136.624 52.18H116.624C116.624 51.3498 116.805 49.2047 118.534 47.1112L133.954 59.8488ZM125.084 63.92C127.462 63.92 131.067 63.1946 133.812 60.0162L118.676 46.9438C120.914 44.3521 123.746 43.92 125.084 43.92V63.92ZM119.772 62.6843C121.643 63.62 123.508 63.92 125.084 63.92V43.92C126.02 43.92 127.325 44.1 128.716 44.7957L119.772 62.6843ZM114.76 57.6121C115.638 59.3685 117.067 61.1201 119.174 62.3593L129.314 45.1207C130.968 46.0932 132.037 47.4449 132.648 48.6679L114.76 57.6121ZM113.524 52.08C113.524 53.3561 113.691 55.1619 114.513 57.0793L132.895 49.2007C133.477 50.5581 133.524 51.6573 133.524 52.08H113.524ZM113.524 51.28V52.08H133.524V51.28H113.524ZM114.78 45.6479C113.627 47.9544 113.524 50.1655 113.524 51.28H133.524C133.524 51.4413 133.515 51.8069 133.429 52.309C133.345 52.7941 133.152 53.6245 132.668 54.5921L114.78 45.6479ZM115.498 44.3395C115.309 44.6746 115.13 44.9954 114.962 45.3008L132.486 54.9392C132.612 54.7113 132.752 54.4587 132.91 54.1805L115.498 44.3395ZM115.352 44.6559C115.423 44.4746 115.476 44.379 115.479 44.3739L132.929 54.1461C133.305 53.4743 133.665 52.7388 133.976 51.9441L115.352 44.6559ZM114.844 47.2C114.844 46.6582 114.922 45.7993 115.301 44.7887L134.027 51.8113C134.646 50.1607 134.844 48.5685 134.844 47.2H114.844ZM115.524 50.1505C114.943 48.891 114.844 47.8061 114.844 47.2H134.844C134.844 45.6339 134.585 43.7223 133.684 41.7695L115.524 50.1505ZM119.221 54.0375C117.741 53.2701 116.355 51.9499 115.525 50.1507L133.684 41.7693C132.533 39.2768 130.627 37.4233 128.427 36.2825L119.221 54.0375ZM122.424 54.88C122.104 54.88 120.734 54.8539 119.083 53.9647L128.565 36.3553C126.22 35.0928 123.917 34.88 122.424 34.88V54.88ZM123.053 54.8387C123.058 54.8378 123.009 54.847 122.913 54.8569C122.819 54.8666 122.652 54.88 122.424 54.88V34.88C121.328 34.88 120.32 35.0078 119.475 35.1613L123.053 54.8387ZM124.786 54.2148C124.148 54.5567 123.471 54.7765 122.808 54.8801L119.72 35.1199C118.204 35.3568 116.727 35.8433 115.342 36.5852L124.786 54.2148ZM130.233 44.8062L129.753 42.9262L110.375 47.8738L110.855 49.7538L130.233 44.8062ZM118.13 37.5218C117.416 37.736 116.809 37.9902 116.354 38.2003L124.734 56.3597C124.626 56.4098 124.325 56.544 123.878 56.6782L118.13 37.5218ZM121.424 37.04C120.288 37.04 119.26 37.2106 118.373 37.4523L123.635 56.7477C123.042 56.9094 122.294 57.04 121.424 57.04V37.04ZM128.935 40.1289C126.529 37.7226 123.596 37.04 121.424 37.04V57.04C119.626 57.04 116.986 56.4641 114.793 54.2711L128.935 40.1289ZM132.044 47.7C132.044 46.1749 131.695 42.1773 128.003 39.3063L115.725 55.0937C112.273 52.4094 112.044 48.7451 112.044 47.7H132.044ZM130.357 53.6544C131.354 52.0226 132.044 49.9916 132.044 47.7H112.044C112.044 45.915 112.587 44.3774 113.291 43.2256L130.357 53.6544ZM129.391 55.1017C129.729 54.6369 130.098 54.0978 130.443 53.5103L113.205 43.3697C113.228 43.3309 113.245 43.3024 113.256 43.285C113.267 43.2674 113.273 43.2583 113.274 43.258C113.274 43.2576 113.269 43.2643 113.26 43.2783C113.25 43.2922 113.236 43.3121 113.217 43.3383L129.391 55.1017ZM130.025 53.973C129.889 54.3074 129.686 54.6972 129.391 55.1017L113.217 43.3383C112.496 44.3295 111.933 45.3726 111.503 46.427L130.025 53.973ZM130.544 51.54C130.544 51.7764 130.529 52.785 129.974 54.0964L111.554 46.3036C110.706 48.3083 110.544 50.2102 110.544 51.54H130.544ZM130.544 52.34V51.54H110.544V52.34H130.544ZM128.278 47.7424C129.144 48.5021 129.772 49.4388 130.144 50.3932C130.496 51.2941 130.544 52.007 130.544 52.34H110.544C110.544 55.6761 111.615 59.7295 115.09 62.7776L128.278 47.7424ZM137.34 46.26C137.2 46.26 137.522 46.2387 138.121 46.4288C138.767 46.6339 139.754 47.0961 140.69 48.0486L126.43 62.0714C129.906 65.6062 134.356 66.26 137.34 66.26V46.26ZM133.91 48.1097C134.865 47.1219 135.879 46.6444 136.54 46.4334C137.151 46.2382 137.482 46.26 137.34 46.26V66.26C140.305 66.26 144.806 65.6142 148.29 62.0103L133.91 48.1097ZM132.28 51.54C132.28 51.4204 132.332 49.7413 133.912 48.1078L148.288 62.0122C151.441 58.7521 152.28 54.7263 152.28 51.54H132.28ZM132.28 45.04V51.54H152.28V45.04H132.28ZM139.28 55.04H142.28V35.04H139.28V55.04ZM149.28 51.7V45.04H129.28V51.7H149.28ZM146.393 59.8278C148.824 56.9915 149.28 53.7683 149.28 51.7H129.28C129.28 51.0451 129.416 48.9018 131.207 46.8122L146.393 59.8278ZM137.34 63.86C139.689 63.86 143.524 63.1959 146.412 59.8047L131.188 46.8353C133.463 44.1641 136.324 43.86 137.34 43.86V63.86ZM128.386 59.9636C131.248 63.1834 134.956 63.86 137.34 63.86V43.86C138.39 43.86 141.112 44.1766 143.334 46.6764L128.386 59.9636ZM125.4 51.7C125.4 53.6821 125.81 56.8395 128.133 59.6674L143.587 46.9726C145.297 49.0538 145.4 51.1313 145.4 51.7H125.4ZM125.4 45.04V51.7H145.4V45.04H125.4ZM132.4 55.04H135.4V35.04H132.4V55.04ZM142.4 51.54V45.04H122.4V51.54H142.4ZM140.807 48.1694C142.365 49.8074 142.4 51.4631 142.4 51.54H122.4C122.4 54.6836 123.209 58.6859 126.313 61.9506L140.807 48.1694ZM146.251 43.54V42.54H126.251V43.54H146.251ZM142.791 33.54H136.251V53.54H142.791V33.54ZM132.791 41.6V43.54H152.791V41.6H132.791ZM139.742 51.6H142.791V31.6H139.742V51.6ZM131.357 36.1596C131.483 35.9594 131.617 35.7652 131.759 35.5776L147.725 47.6224C147.916 47.3698 148.096 47.109 148.266 46.8404L131.357 36.1596ZM130.031 40.68C130.031 39.2177 130.42 37.7623 131.157 36.4896L148.465 46.5104C149.495 44.7311 150.031 42.7289 150.031 40.68H130.031ZM133.099 47.097C131.981 46.1579 131.146 44.9743 130.632 43.6997C130.141 42.4818 130.031 41.4064 130.031 40.68H150.031C150.031 37.9992 149.119 34.4339 145.963 31.783L133.099 47.097ZM138.111 49.02C137.216 49.02 135.211 48.8051 133.248 47.2194L145.814 31.6606C143.158 29.5149 140.207 29.02 138.111 29.02V49.02ZM139.157 48.9326C139.133 48.9376 139.037 48.9568 138.882 48.9759C138.731 48.9943 138.465 49.02 138.111 49.02V29.02C136.924 29.02 135.873 29.1886 135.105 29.3474L139.157 48.9326ZM142.608 47.1993C141.29 48.3195 139.872 48.8211 138.775 49.0039L135.487 29.2761C133.59 29.5922 131.506 30.3872 129.655 31.9607L142.608 47.1993ZM146.132 38.1918L145.752 36.8518L126.51 42.3082L126.89 43.6482L146.132 38.1918ZM133.669 31.3132C133.347 31.4205 132.973 31.5567 132.572 31.7286L140.45 50.1114C140.236 50.2032 140.075 50.2595 139.993 50.2868L133.669 31.3132ZM137.171 30.74C135.811 30.74 134.624 30.9947 133.669 31.3131L139.993 50.2869C139.278 50.5253 138.318 50.74 137.171 50.74V30.74ZM144.642 33.8289C142.538 31.7244 139.805 30.74 137.171 30.74V50.74C136.124 50.74 134.919 50.5616 133.677 50.0647C132.423 49.5632 131.355 48.8261 130.5 47.9711L144.642 33.8289ZM147.731 41.34C147.731 39.1684 147.048 36.2352 144.642 33.8289L130.5 47.9711C128.307 45.7781 127.731 43.1383 127.731 41.34H147.731ZM144.254 49.288C146.518 47.1978 147.731 44.3158 147.731 41.34H127.731C127.731 40.2312 127.937 38.9705 128.491 37.6939C129.046 36.4132 129.836 35.3784 130.688 34.592L144.254 49.288ZM140.679 51.5668C141.958 51.0399 143.175 50.2837 144.254 49.2881L130.688 34.5919C131.42 33.9163 132.237 33.4135 133.064 33.0732L140.679 51.5668ZM138.998 52.1552C139.624 51.9765 140.191 51.7676 140.679 51.5668L133.064 33.0732C133.098 33.0591 133.252 32.9969 133.504 32.9248L138.998 52.1552ZM157.976 56V48.76H137.976V56H157.976ZM150.976 46H147.976V66H150.976V46ZM140.976 48.22V56H160.976V48.22H140.976ZM142.19 51.7785C141.004 50.024 140.976 48.4846 140.976 48.22H160.976C160.976 46.222 160.614 43.3227 158.762 40.5815L142.19 51.7785ZM145.648 54.4722C144.215 53.9389 142.896 52.9062 142.021 51.52L158.931 40.84C157.415 38.4405 155.203 36.6878 152.623 35.7278L145.648 54.4722ZM147.196 54.78C146.976 54.78 146.375 54.7495 145.576 54.4449L152.696 35.7551C150.776 35.0238 148.882 34.78 147.196 34.78V54.78ZM147.741 54.6814C147.499 54.742 147.326 54.7651 147.244 54.7739C147.16 54.7828 147.14 54.78 147.196 54.78V34.78C145.895 34.78 144.418 34.8968 142.89 35.2786L147.741 54.6814ZM148.214 54.4837C148.057 54.5549 147.932 54.6047 147.849 54.636C147.764 54.6679 147.705 54.6877 147.676 54.6971C147.623 54.7142 147.637 54.7073 147.741 54.6814L142.89 35.2786C142.118 35.4716 141.035 35.7778 139.938 36.2763L148.214 54.4837ZM154.076 47.78V45.38H134.076V47.78H154.076ZM141.934 37.8532C141.044 38.1496 140.167 38.5247 139.313 38.987L148.839 56.573C148.625 56.6886 148.427 56.7704 148.258 56.8268L141.934 37.8532ZM146.316 37.16C144.962 37.16 143.51 37.3457 142.036 37.8197L148.156 56.8603C147.428 57.0943 146.789 57.16 146.316 57.16V37.16ZM154.647 40.469C151.624 37.4461 147.944 37.16 146.316 37.16V57.16C145.939 57.16 145.165 57.125 144.183 56.8291C143.164 56.5217 141.779 55.8851 140.505 54.611L154.647 40.469ZM157.976 48.76C157.976 46.877 157.553 43.2249 154.463 40.2899L140.688 54.7901C138.132 52.3618 137.976 49.523 137.976 48.76H157.976Z" fill="#735F4D" mask="url(#path-1-outside-1_4_28)"/>
</svg>
